<?xml version="1.0" encoding="UTF-8" standalone="no"?>
<!DOCTYPE svg PUBLIC "-//W3C//DTD SVG 1.1//EN"
 "http://www.w3.org/Graphics/SVG/1.1/DTD/svg11.dtd">
<!-- Generated by graphviz version 2.48.0 (0)
 -->
<!-- Title: Curve.h Pages: 1 -->
<svg width="162pt" height="140pt"
 viewBox="0.00 0.00 162.00 140.00" xmlns="http://www.w3.org/2000/svg" xmlns:xlink="http://www.w3.org/1999/xlink">
<g id="graph0" class="graph" transform="scale(1 1) rotate(0) translate(4 136)">
<title>Curve.h</title>
<polygon fill="white" stroke="transparent" points="-4,4 -4,-136 158,-136 158,4 -4,4"/>
<!-- Node1 -->
<g id="node1" class="node">
<title>Node1</title>
<g id="a_node1"><a xlink:title=" ">
<polygon fill="#bfbfbf" stroke="black" points="56,-112.5 56,-131.5 110,-131.5 110,-112.5 56,-112.5"/>
<text text-anchor="middle" x="83" y="-119.5" font-family="Helvetica,sans-Serif" font-size="10.00">Curve.h</text>
</a>
</g>
</g>
<!-- Node2 -->
<g id="node2" class="node">
<title>Node2</title>
<g id="a_node2"><a xlink:href="$_curve_vector_8h_source.html" xlink:title=" ">
<polygon fill="white" stroke="black" points="0,-56.5 0,-75.5 84,-75.5 84,-56.5 0,-56.5"/>
<text text-anchor="middle" x="42" y="-63.5" font-family="Helvetica,sans-Serif" font-size="10.00">CurveVector.h</text>
</a>
</g>
</g>
<!-- Node1&#45;&gt;Node2 -->
<g id="edge1" class="edge">
<title>Node1&#45;&gt;Node2</title>
<path fill="none" stroke="midnightblue" d="M69.98,-103.86C62.88,-94.5 54.4,-83.33 48.64,-75.75"/>
<polygon fill="midnightblue" stroke="midnightblue" points="67.39,-106.24 76.23,-112.08 72.97,-102 67.39,-106.24"/>
</g>
<!-- Node3 -->
<g id="node3" class="node">
<title>Node3</title>
<g id="a_node3"><a xlink:href="$_line_8h_source.html" xlink:title=" ">
<polygon fill="white" stroke="black" points="102,-56.5 102,-75.5 148,-75.5 148,-56.5 102,-56.5"/>
<text text-anchor="middle" x="125" y="-63.5" font-family="Helvetica,sans-Serif" font-size="10.00">Line.h</text>
</a>
</g>
</g>
<!-- Node1&#45;&gt;Node3 -->
<g id="edge2" class="edge">
<title>Node1&#45;&gt;Node3</title>
<path fill="none" stroke="midnightblue" d="M96.11,-104.14C103.43,-94.74 112.24,-83.4 118.19,-75.75"/>
<polygon fill="midnightblue" stroke="midnightblue" points="93.31,-102.04 89.94,-112.08 98.84,-106.34 93.31,-102.04"/>
</g>
<!-- Node4 -->
<g id="node4" class="node">
<title>Node4</title>
<g id="a_node4"><a xlink:href="$_ellipse_8h_source.html" xlink:title=" ">
<polygon fill="white" stroke="black" points="96,-0.5 96,-19.5 154,-19.5 154,-0.5 96,-0.5"/>
<text text-anchor="middle" x="125" y="-7.5" font-family="Helvetica,sans-Serif" font-size="10.00">Ellipse.h</text>
</a>
</g>
</g>
<!-- Node3&#45;&gt;Node4 -->
<g id="edge3" class="edge">
<title>Node3&#45;&gt;Node4</title>
<path fill="none" stroke="midnightblue" d="M125,-45.8C125,-36.91 125,-26.78 125,-19.75"/>
<polygon fill="midnightblue" stroke="midnightblue" points="121.5,-46.08 125,-56.08 128.5,-46.08 121.5,-46.08"/>
</g>
</g>
</svg>
