<?xml version="1.0" encoding="UTF-8" standalone="no"?>
<!DOCTYPE svg PUBLIC "-//W3C//DTD SVG 1.1//EN"
 "http://www.w3.org/Graphics/SVG/1.1/DTD/svg11.dtd">
<!-- Generated by graphviz version 2.49.0 (0)
 -->
<!-- Title: Curve.h Pages: 1 -->
<svg width="381pt" height="140pt"
 viewBox="0.00 0.00 380.50 140.00" xmlns="http://www.w3.org/2000/svg" xmlns:xlink="http://www.w3.org/1999/xlink">
<g id="graph0" class="graph" transform="scale(1 1) rotate(0) translate(4 136)">
<title>Curve.h</title>
<polygon fill="white" stroke="transparent" points="-4,4 -4,-136 376.5,-136 376.5,4 -4,4"/>
<!-- Node1 -->
<g id="node1" class="node">
<title>Node1</title>
<g id="a_node1"><a xlink:title="Curve class interface and implementation. Curve class is base class.">
<polygon fill="#bfbfbf" stroke="black" points="270,-112.5 270,-131.5 324,-131.5 324,-112.5 270,-112.5"/>
<text text-anchor="middle" x="297" y="-119.5" font-family="Helvetica,sans-Serif" font-size="10.00">Curve.h</text>
</a>
</g>
</g>
<!-- Node2 -->
<g id="node2" class="node">
<title>Node2</title>
<g id="a_node2"><a xlink:href="$_point_8h.html" xlink:title="Point class interface and implementation.">
<polygon fill="white" stroke="black" points="197,-56.5 197,-75.5 247,-75.5 247,-56.5 197,-56.5"/>
<text text-anchor="middle" x="222" y="-63.5" font-family="Helvetica,sans-Serif" font-size="10.00">Point.h</text>
</a>
</g>
</g>
<!-- Node1&#45;&gt;Node2 -->
<g id="edge1" class="edge">
<title>Node1&#45;&gt;Node2</title>
<path fill="none" stroke="midnightblue" d="M284.95,-112.32C273.54,-104.11 256.17,-91.6 242.57,-81.81"/>
<polygon fill="midnightblue" stroke="midnightblue" points="244.43,-78.84 234.27,-75.83 240.34,-84.52 244.43,-78.84"/>
</g>
<!-- Node6 -->
<g id="node6" class="node">
<title>Node6</title>
<g id="a_node6"><a xlink:title=" ">
<polygon fill="white" stroke="#bfbfbf" points="297,-0.5 297,-19.5 341,-19.5 341,-0.5 297,-0.5"/>
<text text-anchor="middle" x="319" y="-7.5" font-family="Helvetica,sans-Serif" font-size="10.00">string</text>
</a>
</g>
</g>
<!-- Node1&#45;&gt;Node6 -->
<g id="edge8" class="edge">
<title>Node1&#45;&gt;Node6</title>
<path fill="none" stroke="midnightblue" d="M298.73,-112.37C302.28,-94.62 310.47,-53.67 315.28,-29.6"/>
<polygon fill="midnightblue" stroke="midnightblue" points="318.75,-30.08 317.28,-19.59 311.89,-28.71 318.75,-30.08"/>
</g>
<!-- Node8 -->
<g id="node8" class="node">
<title>Node8</title>
<g id="a_node8"><a xlink:title=" ">
<polygon fill="white" stroke="#bfbfbf" points="325.5,-56.5 325.5,-75.5 372.5,-75.5 372.5,-56.5 325.5,-56.5"/>
<text text-anchor="middle" x="349" y="-63.5" font-family="Helvetica,sans-Serif" font-size="10.00">cmath</text>
</a>
</g>
</g>
<!-- Node1&#45;&gt;Node8 -->
<g id="edge7" class="edge">
<title>Node1&#45;&gt;Node8</title>
<path fill="none" stroke="midnightblue" d="M305.59,-112.08C313.16,-104.22 324.38,-92.57 333.51,-83.08"/>
<polygon fill="midnightblue" stroke="midnightblue" points="336.16,-85.38 340.57,-75.75 331.12,-80.53 336.16,-85.38"/>
</g>
<!-- Node3 -->
<g id="node3" class="node">
<title>Node3</title>
<g id="a_node3"><a xlink:title=" ">
<polygon fill="white" stroke="#bfbfbf" points="0,-0.5 0,-19.5 60,-19.5 60,-0.5 0,-0.5"/>
<text text-anchor="middle" x="30" y="-7.5" font-family="Helvetica,sans-Serif" font-size="10.00">iostream</text>
</a>
</g>
</g>
<!-- Node2&#45;&gt;Node3 -->
<g id="edge2" class="edge">
<title>Node2&#45;&gt;Node3</title>
<path fill="none" stroke="midnightblue" d="M196.9,-57.94C164.61,-48.86 108.16,-32.98 69.94,-22.23"/>
<polygon fill="midnightblue" stroke="midnightblue" points="70.74,-18.82 60.16,-19.48 68.84,-25.56 70.74,-18.82"/>
</g>
<!-- Node4 -->
<g id="node4" class="node">
<title>Node4</title>
<g id="a_node4"><a xlink:href="$consts_8h.html" xlink:title="Constants.">
<polygon fill="white" stroke="black" points="78.5,-0.5 78.5,-19.5 135.5,-19.5 135.5,-0.5 78.5,-0.5"/>
<text text-anchor="middle" x="107" y="-7.5" font-family="Helvetica,sans-Serif" font-size="10.00">consts.h</text>
</a>
</g>
</g>
<!-- Node2&#45;&gt;Node4 -->
<g id="edge3" class="edge">
<title>Node2&#45;&gt;Node4</title>
<path fill="none" stroke="midnightblue" d="M203.78,-56.44C185.1,-47.68 155.84,-33.94 134.38,-23.86"/>
<polygon fill="midnightblue" stroke="midnightblue" points="135.68,-20.6 125.14,-19.52 132.7,-26.93 135.68,-20.6"/>
</g>
<!-- Node5 -->
<g id="node5" class="node">
<title>Node5</title>
<g id="a_node5"><a xlink:title=" ">
<polygon fill="white" stroke="#bfbfbf" points="153.5,-0.5 153.5,-19.5 218.5,-19.5 218.5,-0.5 153.5,-0.5"/>
<text text-anchor="middle" x="186" y="-7.5" font-family="Helvetica,sans-Serif" font-size="10.00">stdexcept</text>
</a>
</g>
</g>
<!-- Node2&#45;&gt;Node5 -->
<g id="edge4" class="edge">
<title>Node2&#45;&gt;Node5</title>
<path fill="none" stroke="midnightblue" d="M216.06,-56.08C211.02,-48.53 203.66,-37.49 197.49,-28.23"/>
<polygon fill="midnightblue" stroke="midnightblue" points="200.29,-26.13 191.83,-19.75 194.47,-30.01 200.29,-26.13"/>
</g>
<!-- Node2&#45;&gt;Node6 -->
<g id="edge5" class="edge">
<title>Node2&#45;&gt;Node6</title>
<path fill="none" stroke="midnightblue" d="M237.58,-56.32C253,-47.74 276.81,-34.49 294.71,-24.52"/>
<polygon fill="midnightblue" stroke="midnightblue" points="296.42,-27.58 303.45,-19.65 293.01,-21.46 296.42,-27.58"/>
</g>
<!-- Node7 -->
<g id="node7" class="node">
<title>Node7</title>
<g id="a_node7"><a xlink:title=" ">
<polygon fill="white" stroke="#bfbfbf" points="237,-0.5 237,-19.5 279,-19.5 279,-0.5 237,-0.5"/>
<text text-anchor="middle" x="258" y="-7.5" font-family="Helvetica,sans-Serif" font-size="10.00">array</text>
</a>
</g>
</g>
<!-- Node2&#45;&gt;Node7 -->
<g id="edge6" class="edge">
<title>Node2&#45;&gt;Node7</title>
<path fill="none" stroke="midnightblue" d="M227.94,-56.08C232.98,-48.53 240.34,-37.49 246.51,-28.23"/>
<polygon fill="midnightblue" stroke="midnightblue" points="249.53,-30.01 252.17,-19.75 243.71,-26.13 249.53,-30.01"/>
</g>
</g>
</svg>
