<?xml version="1.0" encoding="UTF-8" standalone="no"?>
<!DOCTYPE svg PUBLIC "-//W3C//DTD SVG 1.1//EN"
 "http://www.w3.org/Graphics/SVG/1.1/DTD/svg11.dtd">
<!-- Generated by graphviz version 2.49.0 (0)
 -->
<!-- Title: Ellipse.h Pages: 1 -->
<svg width="332pt" height="252pt"
 viewBox="0.00 0.00 331.50 252.00" xmlns="http://www.w3.org/2000/svg" xmlns:xlink="http://www.w3.org/1999/xlink">
<g id="graph0" class="graph" transform="scale(1 1) rotate(0) translate(4 248)">
<title>Ellipse.h</title>
<polygon fill="white" stroke="transparent" points="-4,4 -4,-248 327.5,-248 327.5,4 -4,4"/>
<!-- Node1 -->
<g id="node1" class="node">
<title>Node1</title>
<g id="a_node1"><a xlink:title="Ellipse class interface and implementation.">
<polygon fill="#bfbfbf" stroke="black" points="142,-224.5 142,-243.5 200,-243.5 200,-224.5 142,-224.5"/>
<text text-anchor="middle" x="171" y="-231.5" font-family="Helvetica,sans-Serif" font-size="10.00">Ellipse.h</text>
</a>
</g>
</g>
<!-- Node2 -->
<g id="node2" class="node">
<title>Node2</title>
<g id="a_node2"><a xlink:href="$_line_8h.html" xlink:title="Line class interface and implementation.">
<polygon fill="white" stroke="black" points="148,-168.5 148,-187.5 194,-187.5 194,-168.5 148,-168.5"/>
<text text-anchor="middle" x="171" y="-175.5" font-family="Helvetica,sans-Serif" font-size="10.00">Line.h</text>
</a>
</g>
</g>
<!-- Node1&#45;&gt;Node2 -->
<g id="edge1" class="edge">
<title>Node1&#45;&gt;Node2</title>
<path fill="none" stroke="midnightblue" d="M171,-224.08C171,-217.01 171,-206.86 171,-197.99"/>
<polygon fill="midnightblue" stroke="midnightblue" points="174.5,-197.75 171,-187.75 167.5,-197.75 174.5,-197.75"/>
</g>
<!-- Node7 -->
<g id="node7" class="node">
<title>Node7</title>
<g id="a_node7"><a xlink:title=" ">
<polygon fill="white" stroke="#bfbfbf" points="0,-0.5 0,-19.5 44,-19.5 44,-0.5 0,-0.5"/>
<text text-anchor="middle" x="22" y="-7.5" font-family="Helvetica,sans-Serif" font-size="10.00">string</text>
</a>
</g>
</g>
<!-- Node1&#45;&gt;Node7 -->
<g id="edge15" class="edge">
<title>Node1&#45;&gt;Node7</title>
<path fill="none" stroke="midnightblue" d="M162.02,-224.31C139.28,-201.84 78.83,-139.15 45,-76 37.05,-61.16 30.89,-43.01 26.96,-29.67"/>
<polygon fill="midnightblue" stroke="midnightblue" points="30.25,-28.45 24.19,-19.76 23.51,-30.34 30.25,-28.45"/>
</g>
<!-- Node9 -->
<g id="node9" class="node">
<title>Node9</title>
<g id="a_node9"><a xlink:title=" ">
<polygon fill="white" stroke="#bfbfbf" points="276.5,-0.5 276.5,-19.5 323.5,-19.5 323.5,-0.5 276.5,-0.5"/>
<text text-anchor="middle" x="300" y="-7.5" font-family="Helvetica,sans-Serif" font-size="10.00">cmath</text>
</a>
</g>
</g>
<!-- Node1&#45;&gt;Node9 -->
<g id="edge14" class="edge">
<title>Node1&#45;&gt;Node9</title>
<path fill="none" stroke="midnightblue" d="M177.31,-224.49C183.89,-215.53 194.42,-200.95 203,-188 235.29,-139.26 245.03,-127.87 272,-76 280.05,-60.52 287.79,-42.21 293.08,-28.97"/>
<polygon fill="midnightblue" stroke="midnightblue" points="296.36,-30.18 296.76,-19.6 289.85,-27.63 296.36,-30.18"/>
</g>
<!-- Node3 -->
<g id="node3" class="node">
<title>Node3</title>
<g id="a_node3"><a xlink:href="$_curve_8h.html" xlink:title="Curve class interface and implementation. Curve class is base class.">
<polygon fill="white" stroke="black" points="117,-112.5 117,-131.5 171,-131.5 171,-112.5 117,-112.5"/>
<text text-anchor="middle" x="144" y="-119.5" font-family="Helvetica,sans-Serif" font-size="10.00">Curve.h</text>
</a>
</g>
</g>
<!-- Node2&#45;&gt;Node3 -->
<g id="edge2" class="edge">
<title>Node2&#45;&gt;Node3</title>
<path fill="none" stroke="midnightblue" d="M166.54,-168.08C162.85,-160.69 157.48,-149.95 152.91,-140.81"/>
<polygon fill="midnightblue" stroke="midnightblue" points="155.98,-139.13 148.38,-131.75 149.72,-142.26 155.98,-139.13"/>
</g>
<!-- Node4 -->
<g id="node4" class="node">
<title>Node4</title>
<g id="a_node4"><a xlink:href="$_point_8h.html" xlink:title="Point class interface and implementation.">
<polygon fill="white" stroke="black" points="134,-56.5 134,-75.5 184,-75.5 184,-56.5 134,-56.5"/>
<text text-anchor="middle" x="159" y="-63.5" font-family="Helvetica,sans-Serif" font-size="10.00">Point.h</text>
</a>
</g>
</g>
<!-- Node2&#45;&gt;Node4 -->
<g id="edge11" class="edge">
<title>Node2&#45;&gt;Node4</title>
<path fill="none" stroke="midnightblue" d="M174.22,-168.09C178.33,-155.49 184.39,-131.8 180,-112 177.88,-102.43 173.49,-92.48 169.28,-84.37"/>
<polygon fill="midnightblue" stroke="midnightblue" points="172.3,-82.6 164.38,-75.56 166.18,-86 172.3,-82.6"/>
</g>
<!-- Node2&#45;&gt;Node7 -->
<g id="edge13" class="edge">
<title>Node2&#45;&gt;Node7</title>
<path fill="none" stroke="midnightblue" d="M156.19,-168.4C142.71,-160.13 122.71,-146.75 108,-132 75.52,-99.45 46.54,-53.5 31.96,-28.63"/>
<polygon fill="midnightblue" stroke="midnightblue" points="34.81,-26.56 26.78,-19.65 28.74,-30.06 34.81,-26.56"/>
</g>
<!-- Node2&#45;&gt;Node9 -->
<g id="edge12" class="edge">
<title>Node2&#45;&gt;Node9</title>
<path fill="none" stroke="midnightblue" d="M177.94,-168.08C198.59,-141.49 259.95,-62.54 286.97,-27.76"/>
<polygon fill="midnightblue" stroke="midnightblue" points="289.97,-29.61 293.34,-19.57 284.44,-25.32 289.97,-29.61"/>
</g>
<!-- Node3&#45;&gt;Node4 -->
<g id="edge3" class="edge">
<title>Node3&#45;&gt;Node4</title>
<path fill="none" stroke="midnightblue" d="M146.48,-112.08C148.49,-104.85 151.39,-94.41 153.89,-85.4"/>
<polygon fill="midnightblue" stroke="midnightblue" points="157.26,-86.32 156.57,-75.75 150.52,-84.45 157.26,-86.32"/>
</g>
<!-- Node3&#45;&gt;Node7 -->
<g id="edge10" class="edge">
<title>Node3&#45;&gt;Node7</title>
<path fill="none" stroke="midnightblue" d="M135.89,-112.26C123.88,-99.47 100.47,-75.09 79,-56 67.11,-45.42 53.08,-34.33 41.92,-25.81"/>
<polygon fill="midnightblue" stroke="midnightblue" points="43.76,-22.82 33.68,-19.58 39.54,-28.4 43.76,-22.82"/>
</g>
<!-- Node3&#45;&gt;Node9 -->
<g id="edge9" class="edge">
<title>Node3&#45;&gt;Node9</title>
<path fill="none" stroke="midnightblue" d="M156.24,-112.37C182.9,-93.57 246.44,-48.77 279.39,-25.53"/>
<polygon fill="midnightblue" stroke="midnightblue" points="281.66,-28.21 287.82,-19.59 277.63,-22.49 281.66,-28.21"/>
</g>
<!-- Node5 -->
<g id="node5" class="node">
<title>Node5</title>
<g id="a_node5"><a xlink:title=" ">
<polygon fill="white" stroke="#bfbfbf" points="198,-0.5 198,-19.5 258,-19.5 258,-0.5 198,-0.5"/>
<text text-anchor="middle" x="228" y="-7.5" font-family="Helvetica,sans-Serif" font-size="10.00">iostream</text>
</a>
</g>
</g>
<!-- Node4&#45;&gt;Node5 -->
<g id="edge4" class="edge">
<title>Node4&#45;&gt;Node5</title>
<path fill="none" stroke="midnightblue" d="M170.09,-56.32C180.49,-48.18 196.26,-35.84 208.72,-26.09"/>
<polygon fill="midnightblue" stroke="midnightblue" points="210.99,-28.75 216.71,-19.83 206.68,-23.24 210.99,-28.75"/>
</g>
<!-- Node6 -->
<g id="node6" class="node">
<title>Node6</title>
<g id="a_node6"><a xlink:href="$consts_8h.html" xlink:title="Constants.">
<polygon fill="white" stroke="black" points="62.5,-0.5 62.5,-19.5 119.5,-19.5 119.5,-0.5 62.5,-0.5"/>
<text text-anchor="middle" x="91" y="-7.5" font-family="Helvetica,sans-Serif" font-size="10.00">consts.h</text>
</a>
</g>
</g>
<!-- Node4&#45;&gt;Node6 -->
<g id="edge5" class="edge">
<title>Node4&#45;&gt;Node6</title>
<path fill="none" stroke="midnightblue" d="M148.07,-56.32C137.83,-48.18 122.28,-35.84 110,-26.09"/>
<polygon fill="midnightblue" stroke="midnightblue" points="112.13,-23.31 102.12,-19.83 107.78,-28.79 112.13,-23.31"/>
</g>
<!-- Node4&#45;&gt;Node7 -->
<g id="edge6" class="edge">
<title>Node4&#45;&gt;Node7</title>
<path fill="none" stroke="midnightblue" d="M137.29,-56.44C114.65,-47.52 78.93,-33.44 53.25,-23.32"/>
<polygon fill="midnightblue" stroke="midnightblue" points="54.19,-19.93 43.61,-19.52 51.63,-26.44 54.19,-19.93"/>
</g>
<!-- Node8 -->
<g id="node8" class="node">
<title>Node8</title>
<g id="a_node8"><a xlink:title=" ">
<polygon fill="white" stroke="#bfbfbf" points="138,-0.5 138,-19.5 180,-19.5 180,-0.5 138,-0.5"/>
<text text-anchor="middle" x="159" y="-7.5" font-family="Helvetica,sans-Serif" font-size="10.00">array</text>
</a>
</g>
</g>
<!-- Node4&#45;&gt;Node8 -->
<g id="edge7" class="edge">
<title>Node4&#45;&gt;Node8</title>
<path fill="none" stroke="midnightblue" d="M159,-56.08C159,-49.01 159,-38.86 159,-29.99"/>
<polygon fill="midnightblue" stroke="midnightblue" points="162.5,-29.75 159,-19.75 155.5,-29.75 162.5,-29.75"/>
</g>
<!-- Node4&#45;&gt;Node9 -->
<g id="edge8" class="edge">
<title>Node4&#45;&gt;Node9</title>
<path fill="none" stroke="midnightblue" d="M181.34,-56.44C204.75,-47.48 241.74,-33.31 268.19,-23.18"/>
<polygon fill="midnightblue" stroke="midnightblue" points="269.68,-26.36 277.76,-19.52 267.17,-19.82 269.68,-26.36"/>
</g>
</g>
</svg>
