<?xml version="1.0" encoding="UTF-8" standalone="no"?>
<!DOCTYPE svg PUBLIC "-//W3C//DTD SVG 1.1//EN"
 "http://www.w3.org/Graphics/SVG/1.1/DTD/svg11.dtd">
<!-- Generated by graphviz version 2.49.0 (0)
 -->
<!-- Title: Line.h Pages: 1 -->
<svg width="332pt" height="196pt"
 viewBox="0.00 0.00 331.50 196.00" xmlns="http://www.w3.org/2000/svg" xmlns:xlink="http://www.w3.org/1999/xlink">
<g id="graph0" class="graph" transform="scale(1 1) rotate(0) translate(4 192)">
<title>Line.h</title>
<polygon fill="white" stroke="transparent" points="-4,4 -4,-192 327.5,-192 327.5,4 -4,4"/>
<!-- Node1 -->
<g id="node1" class="node">
<title>Node1</title>
<g id="a_node1"><a xlink:title="Line class interface and implementation.">
<polygon fill="#bfbfbf" stroke="black" points="113,-168.5 113,-187.5 159,-187.5 159,-168.5 113,-168.5"/>
<text text-anchor="middle" x="136" y="-175.5" font-family="Helvetica,sans-Serif" font-size="10.00">Line.h</text>
</a>
</g>
</g>
<!-- Node2 -->
<g id="node2" class="node">
<title>Node2</title>
<g id="a_node2"><a xlink:href="$_curve_8h.html" xlink:title="Curve class interface and implementation. Curve class is base class.">
<polygon fill="white" stroke="black" points="137,-112.5 137,-131.5 191,-131.5 191,-112.5 137,-112.5"/>
<text text-anchor="middle" x="164" y="-119.5" font-family="Helvetica,sans-Serif" font-size="10.00">Curve.h</text>
</a>
</g>
</g>
<!-- Node1&#45;&gt;Node2 -->
<g id="edge1" class="edge">
<title>Node1&#45;&gt;Node2</title>
<path fill="none" stroke="midnightblue" d="M140.62,-168.08C144.46,-160.69 150.02,-149.95 154.76,-140.81"/>
<polygon fill="midnightblue" stroke="midnightblue" points="157.97,-142.24 159.46,-131.75 151.75,-139.02 157.97,-142.24"/>
</g>
<!-- Node3 -->
<g id="node3" class="node">
<title>Node3</title>
<g id="a_node3"><a xlink:href="$_point_8h.html" xlink:title="Point class interface and implementation.">
<polygon fill="white" stroke="black" points="134,-56.5 134,-75.5 184,-75.5 184,-56.5 134,-56.5"/>
<text text-anchor="middle" x="159" y="-63.5" font-family="Helvetica,sans-Serif" font-size="10.00">Point.h</text>
</a>
</g>
</g>
<!-- Node1&#45;&gt;Node3 -->
<g id="edge10" class="edge">
<title>Node1&#45;&gt;Node3</title>
<path fill="none" stroke="midnightblue" d="M132.7,-168.38C128.35,-155.74 121.92,-131.54 128,-112 131.23,-101.62 137.78,-91.52 144.02,-83.53"/>
<polygon fill="midnightblue" stroke="midnightblue" points="146.79,-85.68 150.52,-75.77 141.42,-81.19 146.79,-85.68"/>
</g>
<!-- Node6 -->
<g id="node6" class="node">
<title>Node6</title>
<g id="a_node6"><a xlink:title=" ">
<polygon fill="white" stroke="#bfbfbf" points="0,-0.5 0,-19.5 44,-19.5 44,-0.5 0,-0.5"/>
<text text-anchor="middle" x="22" y="-7.5" font-family="Helvetica,sans-Serif" font-size="10.00">string</text>
</a>
</g>
</g>
<!-- Node1&#45;&gt;Node6 -->
<g id="edge12" class="edge">
<title>Node1&#45;&gt;Node6</title>
<path fill="none" stroke="midnightblue" d="M129.87,-168.08C111.69,-141.61 57.85,-63.21 33.82,-28.21"/>
<polygon fill="midnightblue" stroke="midnightblue" points="36.43,-25.83 27.88,-19.57 30.66,-29.79 36.43,-25.83"/>
</g>
<!-- Node8 -->
<g id="node8" class="node">
<title>Node8</title>
<g id="a_node8"><a xlink:title=" ">
<polygon fill="white" stroke="#bfbfbf" points="276.5,-0.5 276.5,-19.5 323.5,-19.5 323.5,-0.5 276.5,-0.5"/>
<text text-anchor="middle" x="300" y="-7.5" font-family="Helvetica,sans-Serif" font-size="10.00">cmath</text>
</a>
</g>
</g>
<!-- Node1&#45;&gt;Node8 -->
<g id="edge11" class="edge">
<title>Node1&#45;&gt;Node8</title>
<path fill="none" stroke="midnightblue" d="M150.55,-168.35C164.08,-159.95 184.45,-146.39 200,-132 236.01,-98.69 270.82,-52.4 288.31,-27.85"/>
<polygon fill="midnightblue" stroke="midnightblue" points="291.24,-29.77 294.14,-19.58 285.52,-25.74 291.24,-29.77"/>
</g>
<!-- Node2&#45;&gt;Node3 -->
<g id="edge2" class="edge">
<title>Node2&#45;&gt;Node3</title>
<path fill="none" stroke="midnightblue" d="M163.17,-112.08C162.52,-105.01 161.58,-94.86 160.76,-85.99"/>
<polygon fill="midnightblue" stroke="midnightblue" points="164.22,-85.39 159.81,-75.75 157.25,-86.03 164.22,-85.39"/>
</g>
<!-- Node2&#45;&gt;Node6 -->
<g id="edge9" class="edge">
<title>Node2&#45;&gt;Node6</title>
<path fill="none" stroke="midnightblue" d="M152.86,-112.37C128.7,-93.65 71.25,-49.15 41.15,-25.83"/>
<polygon fill="midnightblue" stroke="midnightblue" points="43.14,-22.95 33.09,-19.59 38.85,-28.48 43.14,-22.95"/>
</g>
<!-- Node2&#45;&gt;Node8 -->
<g id="edge8" class="edge">
<title>Node2&#45;&gt;Node8</title>
<path fill="none" stroke="midnightblue" d="M174.67,-112.37C197.71,-93.73 252.36,-49.53 281.29,-26.13"/>
<polygon fill="midnightblue" stroke="midnightblue" points="283.8,-28.6 289.38,-19.59 279.4,-23.16 283.8,-28.6"/>
</g>
<!-- Node4 -->
<g id="node4" class="node">
<title>Node4</title>
<g id="a_node4"><a xlink:title=" ">
<polygon fill="white" stroke="#bfbfbf" points="198,-0.5 198,-19.5 258,-19.5 258,-0.5 198,-0.5"/>
<text text-anchor="middle" x="228" y="-7.5" font-family="Helvetica,sans-Serif" font-size="10.00">iostream</text>
</a>
</g>
</g>
<!-- Node3&#45;&gt;Node4 -->
<g id="edge3" class="edge">
<title>Node3&#45;&gt;Node4</title>
<path fill="none" stroke="midnightblue" d="M170.09,-56.32C180.49,-48.18 196.26,-35.84 208.72,-26.09"/>
<polygon fill="midnightblue" stroke="midnightblue" points="210.99,-28.75 216.71,-19.83 206.68,-23.24 210.99,-28.75"/>
</g>
<!-- Node5 -->
<g id="node5" class="node">
<title>Node5</title>
<g id="a_node5"><a xlink:href="$consts_8h.html" xlink:title="Constants.">
<polygon fill="white" stroke="black" points="62.5,-0.5 62.5,-19.5 119.5,-19.5 119.5,-0.5 62.5,-0.5"/>
<text text-anchor="middle" x="91" y="-7.5" font-family="Helvetica,sans-Serif" font-size="10.00">consts.h</text>
</a>
</g>
</g>
<!-- Node3&#45;&gt;Node5 -->
<g id="edge4" class="edge">
<title>Node3&#45;&gt;Node5</title>
<path fill="none" stroke="midnightblue" d="M148.07,-56.32C137.83,-48.18 122.28,-35.84 110,-26.09"/>
<polygon fill="midnightblue" stroke="midnightblue" points="112.13,-23.31 102.12,-19.83 107.78,-28.79 112.13,-23.31"/>
</g>
<!-- Node3&#45;&gt;Node6 -->
<g id="edge5" class="edge">
<title>Node3&#45;&gt;Node6</title>
<path fill="none" stroke="midnightblue" d="M137.29,-56.44C114.65,-47.52 78.93,-33.44 53.25,-23.32"/>
<polygon fill="midnightblue" stroke="midnightblue" points="54.19,-19.93 43.61,-19.52 51.63,-26.44 54.19,-19.93"/>
</g>
<!-- Node7 -->
<g id="node7" class="node">
<title>Node7</title>
<g id="a_node7"><a xlink:title=" ">
<polygon fill="white" stroke="#bfbfbf" points="138,-0.5 138,-19.5 180,-19.5 180,-0.5 138,-0.5"/>
<text text-anchor="middle" x="159" y="-7.5" font-family="Helvetica,sans-Serif" font-size="10.00">array</text>
</a>
</g>
</g>
<!-- Node3&#45;&gt;Node7 -->
<g id="edge6" class="edge">
<title>Node3&#45;&gt;Node7</title>
<path fill="none" stroke="midnightblue" d="M159,-56.08C159,-49.01 159,-38.86 159,-29.99"/>
<polygon fill="midnightblue" stroke="midnightblue" points="162.5,-29.75 159,-19.75 155.5,-29.75 162.5,-29.75"/>
</g>
<!-- Node3&#45;&gt;Node8 -->
<g id="edge7" class="edge">
<title>Node3&#45;&gt;Node8</title>
<path fill="none" stroke="midnightblue" d="M181.34,-56.44C204.75,-47.48 241.74,-33.31 268.19,-23.18"/>
<polygon fill="midnightblue" stroke="midnightblue" points="269.68,-26.36 277.76,-19.52 267.17,-19.82 269.68,-26.36"/>
</g>
</g>
</svg>
