<?xml version="1.0" encoding="UTF-8" standalone="no"?>
<!DOCTYPE svg PUBLIC "-//W3C//DTD SVG 1.1//EN"
 "http://www.w3.org/Graphics/SVG/1.1/DTD/svg11.dtd">
<!-- Generated by graphviz version 2.49.0 (0)
 -->
<!-- Title: Point.h Pages: 1 -->
<svg width="91pt" height="196pt"
 viewBox="0.00 0.00 91.00 196.00" xmlns="http://www.w3.org/2000/svg" xmlns:xlink="http://www.w3.org/1999/xlink">
<g id="graph0" class="graph" transform="scale(1 1) rotate(0) translate(4 192)">
<title>Point.h</title>
<polygon fill="white" stroke="transparent" points="-4,4 -4,-192 87,-192 87,4 -4,4"/>
<!-- Node1 -->
<g id="node1" class="node">
<title>Node1</title>
<g id="a_node1"><a xlink:title="Point class interface.">
<polygon fill="#bfbfbf" stroke="black" points="29,-168.5 29,-187.5 79,-187.5 79,-168.5 29,-168.5"/>
<text text-anchor="middle" x="54" y="-175.5" font-family="Helvetica,sans-Serif" font-size="10.00">Point.h</text>
</a>
</g>
</g>
<!-- Node2 -->
<g id="node2" class="node">
<title>Node2</title>
<g id="a_node2"><a xlink:href="$_curve_8h.html" xlink:title=" ">
<polygon fill="white" stroke="black" points="0,-112.5 0,-131.5 54,-131.5 54,-112.5 0,-112.5"/>
<text text-anchor="middle" x="27" y="-119.5" font-family="Helvetica,sans-Serif" font-size="10.00">Curve.h</text>
</a>
</g>
</g>
<!-- Node1&#45;&gt;Node2 -->
<g id="edge1" class="edge">
<title>Node1&#45;&gt;Node2</title>
<path fill="none" stroke="midnightblue" d="M44.99,-158.98C40.41,-149.82 35.05,-139.09 31.38,-131.75"/>
<polygon fill="midnightblue" stroke="midnightblue" points="41.94,-160.7 49.54,-168.08 48.2,-157.57 41.94,-160.7"/>
</g>
<!-- Node3 -->
<g id="node3" class="node">
<title>Node3</title>
<g id="a_node3"><a xlink:href="$_line_8h_source.html" xlink:title=" ">
<polygon fill="white" stroke="black" points="31,-56.5 31,-75.5 77,-75.5 77,-56.5 31,-56.5"/>
<text text-anchor="middle" x="54" y="-63.5" font-family="Helvetica,sans-Serif" font-size="10.00">Line.h</text>
</a>
</g>
</g>
<!-- Node1&#45;&gt;Node3 -->
<g id="edge4" class="edge">
<title>Node1&#45;&gt;Node3</title>
<path fill="none" stroke="midnightblue" d="M58.98,-158.18C61.83,-145.23 64.55,-127.61 63,-112 61.73,-99.16 58.46,-84.55 56.23,-75.55"/>
<polygon fill="midnightblue" stroke="midnightblue" points="55.51,-157.65 56.55,-168.19 62.31,-159.3 55.51,-157.65"/>
</g>
<!-- Node2&#45;&gt;Node3 -->
<g id="edge2" class="edge">
<title>Node2&#45;&gt;Node3</title>
<path fill="none" stroke="midnightblue" d="M36.01,-102.98C40.59,-93.82 45.95,-83.09 49.62,-75.75"/>
<polygon fill="midnightblue" stroke="midnightblue" points="32.8,-101.57 31.46,-112.08 39.06,-104.7 32.8,-101.57"/>
</g>
<!-- Node4 -->
<g id="node4" class="node">
<title>Node4</title>
<g id="a_node4"><a xlink:href="$_ellipse_8h_source.html" xlink:title=" ">
<polygon fill="white" stroke="black" points="25,-0.5 25,-19.5 83,-19.5 83,-0.5 25,-0.5"/>
<text text-anchor="middle" x="54" y="-7.5" font-family="Helvetica,sans-Serif" font-size="10.00">Ellipse.h</text>
</a>
</g>
</g>
<!-- Node3&#45;&gt;Node4 -->
<g id="edge3" class="edge">
<title>Node3&#45;&gt;Node4</title>
<path fill="none" stroke="midnightblue" d="M54,-45.8C54,-36.91 54,-26.78 54,-19.75"/>
<polygon fill="midnightblue" stroke="midnightblue" points="50.5,-46.08 54,-56.08 57.5,-46.08 50.5,-46.08"/>
</g>
</g>
</svg>
