<?xml version="1.0" encoding="UTF-8" standalone="no"?>
<!DOCTYPE svg PUBLIC "-//W3C//DTD SVG 1.1//EN"
 "http://www.w3.org/Graphics/SVG/1.1/DTD/svg11.dtd">
<!-- Generated by graphviz version 2.48.0 (0)
 -->
<!-- Title: Curves::Curve&lt; T &gt; Pages: 1 -->
<svg width="282pt" height="140pt"
 viewBox="0.00 0.00 281.50 140.00" xmlns="http://www.w3.org/2000/svg" xmlns:xlink="http://www.w3.org/1999/xlink">
<g id="graph0" class="graph" transform="scale(1 1) rotate(0) translate(4 136)">
<title>Curves::Curve&lt; T &gt;</title>
<polygon fill="white" stroke="transparent" points="-4,4 -4,-136 277.5,-136 277.5,4 -4,4"/>
<!-- Node1 -->
<g id="node1" class="node">
<title>Node1</title>
<g id="a_node1"><a xlink:title="Base class for curve hierarchy.">
<polygon fill="#bfbfbf" stroke="black" points="86.5,-112.5 86.5,-131.5 199.5,-131.5 199.5,-112.5 86.5,-112.5"/>
<text text-anchor="middle" x="143" y="-119.5" font-family="Helvetica,sans-Serif" font-size="10.00">Curves::Curve&lt; T &gt;</text>
</a>
</g>
</g>
<!-- Node2 -->
<g id="node2" class="node">
<title>Node2</title>
<g id="a_node2"><a xlink:href="$class_curves_1_1_curve_vector.html" xlink:title=" ">
<polygon fill="white" stroke="black" points="0,-56.5 0,-75.5 144,-75.5 144,-56.5 0,-56.5"/>
<text text-anchor="middle" x="72" y="-63.5" font-family="Helvetica,sans-Serif" font-size="10.00">Curves::CurveVector&lt; T &gt;</text>
</a>
</g>
</g>
<!-- Node1&#45;&gt;Node2 -->
<g id="edge1" class="edge">
<title>Node1&#45;&gt;Node2</title>
<path fill="none" stroke="midnightblue" d="M123.41,-106.1C110.63,-96.38 94.39,-84.03 83.61,-75.83"/>
<polygon fill="midnightblue" stroke="midnightblue" points="121.51,-109.06 131.59,-112.32 125.75,-103.48 121.51,-109.06"/>
</g>
<!-- Node3 -->
<g id="node3" class="node">
<title>Node3</title>
<g id="a_node3"><a xlink:href="$class_curves_1_1_line.html" xlink:title=" ">
<polygon fill="white" stroke="black" points="162.5,-56.5 162.5,-75.5 267.5,-75.5 267.5,-56.5 162.5,-56.5"/>
<text text-anchor="middle" x="215" y="-63.5" font-family="Helvetica,sans-Serif" font-size="10.00">Curves::Line&lt; T &gt;</text>
</a>
</g>
</g>
<!-- Node1&#45;&gt;Node3 -->
<g id="edge2" class="edge">
<title>Node1&#45;&gt;Node3</title>
<path fill="none" stroke="midnightblue" d="M162.87,-106.1C175.82,-96.38 192.3,-84.03 203.22,-75.83"/>
<polygon fill="midnightblue" stroke="midnightblue" points="160.47,-103.52 154.57,-112.32 164.67,-109.12 160.47,-103.52"/>
</g>
<!-- Node4 -->
<g id="node4" class="node">
<title>Node4</title>
<g id="a_node4"><a xlink:href="$class_curves_1_1_ellipse.html" xlink:title=" ">
<polygon fill="white" stroke="black" points="156.5,-0.5 156.5,-19.5 273.5,-19.5 273.5,-0.5 156.5,-0.5"/>
<text text-anchor="middle" x="215" y="-7.5" font-family="Helvetica,sans-Serif" font-size="10.00">Curves::Ellipse&lt; T &gt;</text>
</a>
</g>
</g>
<!-- Node3&#45;&gt;Node4 -->
<g id="edge3" class="edge">
<title>Node3&#45;&gt;Node4</title>
<path fill="none" stroke="midnightblue" d="M215,-45.8C215,-36.91 215,-26.78 215,-19.75"/>
<polygon fill="midnightblue" stroke="midnightblue" points="211.5,-46.08 215,-56.08 218.5,-46.08 211.5,-46.08"/>
</g>
</g>
</svg>
