<?xml version="1.0" encoding="UTF-8" standalone="no"?>
<!DOCTYPE svg PUBLIC "-//W3C//DTD SVG 1.1//EN"
 "http://www.w3.org/Graphics/SVG/1.1/DTD/svg11.dtd">
<!-- Generated by graphviz version 2.48.0 (0)
 -->
<!-- Title: consts.h Pages: 1 -->
<svg width="162pt" height="252pt"
 viewBox="0.00 0.00 162.00 252.00" xmlns="http://www.w3.org/2000/svg" xmlns:xlink="http://www.w3.org/1999/xlink">
<g id="graph0" class="graph" transform="scale(1 1) rotate(0) translate(4 248)">
<title>consts.h</title>
<polygon fill="white" stroke="transparent" points="-4,4 -4,-248 158,-248 158,4 -4,4"/>
<!-- Node1 -->
<g id="node1" class="node">
<title>Node1</title>
<g id="a_node1"><a xlink:title="Constants.">
<polygon fill="#bfbfbf" stroke="black" points="68.5,-224.5 68.5,-243.5 125.5,-243.5 125.5,-224.5 68.5,-224.5"/>
<text text-anchor="middle" x="97" y="-231.5" font-family="Helvetica,sans-Serif" font-size="10.00">consts.h</text>
</a>
</g>
</g>
<!-- Node2 -->
<g id="node2" class="node">
<title>Node2</title>
<g id="a_node2"><a xlink:href="$_point_8h.html" xlink:title="Point class interface.">
<polygon fill="white" stroke="black" points="72,-168.5 72,-187.5 122,-187.5 122,-168.5 72,-168.5"/>
<text text-anchor="middle" x="97" y="-175.5" font-family="Helvetica,sans-Serif" font-size="10.00">Point.h</text>
</a>
</g>
</g>
<!-- Node1&#45;&gt;Node2 -->
<g id="edge1" class="edge">
<title>Node1&#45;&gt;Node2</title>
<path fill="none" stroke="midnightblue" d="M97,-213.8C97,-204.91 97,-194.78 97,-187.75"/>
<polygon fill="midnightblue" stroke="midnightblue" points="93.5,-214.08 97,-224.08 100.5,-214.08 93.5,-214.08"/>
</g>
<!-- Node3 -->
<g id="node3" class="node">
<title>Node3</title>
<g id="a_node3"><a xlink:href="$_curve_8h.html" xlink:title=" ">
<polygon fill="white" stroke="black" points="43,-112.5 43,-131.5 97,-131.5 97,-112.5 43,-112.5"/>
<text text-anchor="middle" x="70" y="-119.5" font-family="Helvetica,sans-Serif" font-size="10.00">Curve.h</text>
</a>
</g>
</g>
<!-- Node2&#45;&gt;Node3 -->
<g id="edge2" class="edge">
<title>Node2&#45;&gt;Node3</title>
<path fill="none" stroke="midnightblue" d="M87.99,-158.98C83.41,-149.82 78.05,-139.09 74.38,-131.75"/>
<polygon fill="midnightblue" stroke="midnightblue" points="84.94,-160.7 92.54,-168.08 91.2,-157.57 84.94,-160.7"/>
</g>
<!-- Node5 -->
<g id="node5" class="node">
<title>Node5</title>
<g id="a_node5"><a xlink:href="$_line_8h_source.html" xlink:title=" ">
<polygon fill="white" stroke="black" points="102,-56.5 102,-75.5 148,-75.5 148,-56.5 102,-56.5"/>
<text text-anchor="middle" x="125" y="-63.5" font-family="Helvetica,sans-Serif" font-size="10.00">Line.h</text>
</a>
</g>
</g>
<!-- Node2&#45;&gt;Node5 -->
<g id="edge6" class="edge">
<title>Node2&#45;&gt;Node5</title>
<path fill="none" stroke="midnightblue" d="M101.66,-158.67C107.79,-134.62 118.28,-93.39 122.81,-75.59"/>
<polygon fill="midnightblue" stroke="midnightblue" points="98.27,-157.81 99.2,-168.37 105.06,-159.54 98.27,-157.81"/>
</g>
<!-- Node4 -->
<g id="node4" class="node">
<title>Node4</title>
<g id="a_node4"><a xlink:href="$_curve_vector_8h_source.html" xlink:title=" ">
<polygon fill="white" stroke="black" points="0,-56.5 0,-75.5 84,-75.5 84,-56.5 0,-56.5"/>
<text text-anchor="middle" x="42" y="-63.5" font-family="Helvetica,sans-Serif" font-size="10.00">CurveVector.h</text>
</a>
</g>
</g>
<!-- Node3&#45;&gt;Node4 -->
<g id="edge3" class="edge">
<title>Node3&#45;&gt;Node4</title>
<path fill="none" stroke="midnightblue" d="M60.66,-102.98C55.91,-93.82 50.34,-83.09 46.54,-75.75"/>
<polygon fill="midnightblue" stroke="midnightblue" points="57.67,-104.82 65.38,-112.08 63.88,-101.59 57.67,-104.82"/>
</g>
<!-- Node3&#45;&gt;Node5 -->
<g id="edge4" class="edge">
<title>Node3&#45;&gt;Node5</title>
<path fill="none" stroke="midnightblue" d="M86.29,-105C96.04,-95.43 108.05,-83.64 116.09,-75.75"/>
<polygon fill="midnightblue" stroke="midnightblue" points="83.77,-102.58 79.08,-112.08 88.67,-107.57 83.77,-102.58"/>
</g>
<!-- Node6 -->
<g id="node6" class="node">
<title>Node6</title>
<g id="a_node6"><a xlink:href="$_ellipse_8h_source.html" xlink:title=" ">
<polygon fill="white" stroke="black" points="96,-0.5 96,-19.5 154,-19.5 154,-0.5 96,-0.5"/>
<text text-anchor="middle" x="125" y="-7.5" font-family="Helvetica,sans-Serif" font-size="10.00">Ellipse.h</text>
</a>
</g>
</g>
<!-- Node5&#45;&gt;Node6 -->
<g id="edge5" class="edge">
<title>Node5&#45;&gt;Node6</title>
<path fill="none" stroke="midnightblue" d="M125,-45.8C125,-36.91 125,-26.78 125,-19.75"/>
<polygon fill="midnightblue" stroke="midnightblue" points="121.5,-46.08 125,-56.08 128.5,-46.08 121.5,-46.08"/>
</g>
</g>
</svg>
