<?xml version="1.0" encoding="UTF-8" standalone="no"?>
<!DOCTYPE svg PUBLIC "-//W3C//DTD SVG 1.1//EN"
 "http://www.w3.org/Graphics/SVG/1.1/DTD/svg11.dtd">
<!-- Generated by graphviz version 2.49.0 (0)
 -->
<!-- Title: Curve.h Pages: 1 -->
<svg width="133pt" height="196pt"
 viewBox="0.00 0.00 133.00 196.00" xmlns="http://www.w3.org/2000/svg" xmlns:xlink="http://www.w3.org/1999/xlink">
<g id="graph0" class="graph" transform="scale(1 1) rotate(0) translate(4 192)">
<title>Curve.h</title>
<polygon fill="white" stroke="transparent" points="-4,4 -4,-192 129,-192 129,4 -4,4"/>
<!-- Node1 -->
<g id="node1" class="node">
<title>Node1</title>
<g id="a_node1"><a xlink:title="Curve class interface and implementation. Curve class is base class.">
<polygon fill="#bfbfbf" stroke="black" points="71,-168.5 71,-187.5 125,-187.5 125,-168.5 71,-168.5"/>
<text text-anchor="middle" x="98" y="-175.5" font-family="Helvetica,sans-Serif" font-size="10.00">Curve.h</text>
</a>
</g>
</g>
<!-- Node2 -->
<g id="node2" class="node">
<title>Node2</title>
<g id="a_node2"><a xlink:href="_line_8h.html" target="_top" xlink:title="Line class interface and implementation.">
<polygon fill="white" stroke="black" points="50,-112.5 50,-131.5 96,-131.5 96,-112.5 50,-112.5"/>
<text text-anchor="middle" x="73" y="-119.5" font-family="Helvetica,sans-Serif" font-size="10.00">Line.h</text>
</a>
</g>
</g>
<!-- Node1&#45;&gt;Node2 -->
<g id="edge1" class="edge">
<title>Node1&#45;&gt;Node2</title>
<path fill="none" stroke="midnightblue" d="M89.66,-158.98C85.42,-149.82 80.45,-139.09 77.05,-131.75"/>
<polygon fill="midnightblue" stroke="midnightblue" points="86.49,-160.48 93.87,-168.08 92.85,-157.54 86.49,-160.48"/>
</g>
<!-- Node4 -->
<g id="node4" class="node">
<title>Node4</title>
<g id="a_node4"><a xlink:href="main_8cpp.html" target="_top" xlink:title=" ">
<polygon fill="white" stroke="black" points="55,-0.5 55,-19.5 117,-19.5 117,-0.5 55,-0.5"/>
<text text-anchor="middle" x="86" y="-7.5" font-family="Helvetica,sans-Serif" font-size="10.00">main.cpp</text>
</a>
</g>
</g>
<!-- Node1&#45;&gt;Node4 -->
<g id="edge5" class="edge">
<title>Node1&#45;&gt;Node4</title>
<path fill="none" stroke="midnightblue" d="M101.53,-158.55C102.91,-150.44 104.32,-140.78 105,-132 108.28,-89.6 94.84,-39.6 88.8,-19.75"/>
<polygon fill="midnightblue" stroke="midnightblue" points="98.08,-157.96 99.74,-168.42 104.97,-159.2 98.08,-157.96"/>
</g>
<!-- Node3 -->
<g id="node3" class="node">
<title>Node3</title>
<g id="a_node3"><a xlink:href="_ellipse_8h.html" target="_top" xlink:title="Ellipse class interface and implementation.">
<polygon fill="white" stroke="black" points="0,-56.5 0,-75.5 58,-75.5 58,-56.5 0,-56.5"/>
<text text-anchor="middle" x="29" y="-63.5" font-family="Helvetica,sans-Serif" font-size="10.00">Ellipse.h</text>
</a>
</g>
</g>
<!-- Node2&#45;&gt;Node3 -->
<g id="edge2" class="edge">
<title>Node2&#45;&gt;Node3</title>
<path fill="none" stroke="midnightblue" d="M59.27,-104.14C51.6,-94.74 42.37,-83.4 36.13,-75.75"/>
<polygon fill="midnightblue" stroke="midnightblue" points="56.7,-106.54 65.73,-112.08 62.13,-102.12 56.7,-106.54"/>
</g>
<!-- Node2&#45;&gt;Node4 -->
<g id="edge4" class="edge">
<title>Node2&#45;&gt;Node4</title>
<path fill="none" stroke="midnightblue" d="M75.2,-102.35C78.05,-78.25 82.89,-37.31 84.98,-19.59"/>
<polygon fill="midnightblue" stroke="midnightblue" points="71.72,-102.03 74.02,-112.37 78.67,-102.85 71.72,-102.03"/>
</g>
<!-- Node3&#45;&gt;Node4 -->
<g id="edge3" class="edge">
<title>Node3&#45;&gt;Node4</title>
<path fill="none" stroke="midnightblue" d="M45.62,-49.25C55.73,-39.67 68.28,-27.79 76.68,-19.83"/>
<polygon fill="midnightblue" stroke="midnightblue" points="43.01,-46.91 38.16,-56.32 47.82,-51.99 43.01,-46.91"/>
</g>
</g>
</svg>
