<?xml version="1.0" encoding="UTF-8" standalone="no"?>
<!DOCTYPE svg PUBLIC "-//W3C//DTD SVG 1.1//EN"
 "http://www.w3.org/Graphics/SVG/1.1/DTD/svg11.dtd">
<!-- Generated by graphviz version 2.49.0 (0)
 -->
<!-- Title: Curve.h Pages: 1 -->
<svg width="332pt" height="140pt"
 viewBox="0.00 0.00 331.50 140.00" xmlns="http://www.w3.org/2000/svg" xmlns:xlink="http://www.w3.org/1999/xlink">
<g id="graph0" class="graph" transform="scale(1 1) rotate(0) translate(4 136)">
<title>Curve.h</title>
<polygon fill="white" stroke="transparent" points="-4,4 -4,-136 327.5,-136 327.5,4 -4,4"/>
<!-- Node1 -->
<g id="node1" class="node">
<title>Node1</title>
<g id="a_node1"><a xlink:title="Curve class interface and implementation. Curve class is base class.">
<polygon fill="#bfbfbf" stroke="black" points="209,-112.5 209,-131.5 263,-131.5 263,-112.5 209,-112.5"/>
<text text-anchor="middle" x="236" y="-119.5" font-family="Helvetica,sans-Serif" font-size="10.00">Curve.h</text>
</a>
</g>
</g>
<!-- Node2 -->
<g id="node2" class="node">
<title>Node2</title>
<g id="a_node2"><a xlink:href="_point_8h.html" target="_top" xlink:title="Point class interface and implementation.">
<polygon fill="white" stroke="black" points="154,-56.5 154,-75.5 204,-75.5 204,-56.5 154,-56.5"/>
<text text-anchor="middle" x="179" y="-63.5" font-family="Helvetica,sans-Serif" font-size="10.00">Point.h</text>
</a>
</g>
</g>
<!-- Node1&#45;&gt;Node2 -->
<g id="edge1" class="edge">
<title>Node1&#45;&gt;Node2</title>
<path fill="none" stroke="midnightblue" d="M226.84,-112.32C218.5,-104.42 205.97,-92.55 195.82,-82.94"/>
<polygon fill="midnightblue" stroke="midnightblue" points="197.99,-80.17 188.32,-75.83 193.18,-85.25 197.99,-80.17"/>
</g>
<!-- Node5 -->
<g id="node5" class="node">
<title>Node5</title>
<g id="a_node5"><a xlink:title=" ">
<polygon fill="white" stroke="#bfbfbf" points="214,-0.5 214,-19.5 258,-19.5 258,-0.5 214,-0.5"/>
<text text-anchor="middle" x="236" y="-7.5" font-family="Helvetica,sans-Serif" font-size="10.00">string</text>
</a>
</g>
</g>
<!-- Node1&#45;&gt;Node5 -->
<g id="edge8" class="edge">
<title>Node1&#45;&gt;Node5</title>
<path fill="none" stroke="midnightblue" d="M236,-112.37C236,-94.62 236,-53.67 236,-29.6"/>
<polygon fill="midnightblue" stroke="midnightblue" points="239.5,-29.59 236,-19.59 232.5,-29.59 239.5,-29.59"/>
</g>
<!-- Node7 -->
<g id="node7" class="node">
<title>Node7</title>
<g id="a_node7"><a xlink:title=" ">
<polygon fill="white" stroke="#bfbfbf" points="276.5,-0.5 276.5,-19.5 323.5,-19.5 323.5,-0.5 276.5,-0.5"/>
<text text-anchor="middle" x="300" y="-7.5" font-family="Helvetica,sans-Serif" font-size="10.00">cmath</text>
</a>
</g>
</g>
<!-- Node1&#45;&gt;Node7 -->
<g id="edge7" class="edge">
<title>Node1&#45;&gt;Node7</title>
<path fill="none" stroke="midnightblue" d="M241.02,-112.37C251.54,-94.3 276.04,-52.18 289.93,-28.31"/>
<polygon fill="midnightblue" stroke="midnightblue" points="293,-30 295,-19.59 286.95,-26.47 293,-30"/>
</g>
<!-- Node3 -->
<g id="node3" class="node">
<title>Node3</title>
<g id="a_node3"><a xlink:title=" ">
<polygon fill="white" stroke="#bfbfbf" points="0,-0.5 0,-19.5 60,-19.5 60,-0.5 0,-0.5"/>
<text text-anchor="middle" x="30" y="-7.5" font-family="Helvetica,sans-Serif" font-size="10.00">iostream</text>
</a>
</g>
</g>
<!-- Node2&#45;&gt;Node3 -->
<g id="edge2" class="edge">
<title>Node2&#45;&gt;Node3</title>
<path fill="none" stroke="midnightblue" d="M155.39,-56.44C130.54,-47.44 91.23,-33.19 63.25,-23.05"/>
<polygon fill="midnightblue" stroke="midnightblue" points="64.09,-19.63 53.5,-19.52 61.71,-26.21 64.09,-19.63"/>
</g>
<!-- Node4 -->
<g id="node4" class="node">
<title>Node4</title>
<g id="a_node4"><a xlink:href="consts_8h.html" target="_top" xlink:title="Constants.">
<polygon fill="white" stroke="black" points="78.5,-0.5 78.5,-19.5 135.5,-19.5 135.5,-0.5 78.5,-0.5"/>
<text text-anchor="middle" x="107" y="-7.5" font-family="Helvetica,sans-Serif" font-size="10.00">consts.h</text>
</a>
</g>
</g>
<!-- Node2&#45;&gt;Node4 -->
<g id="edge3" class="edge">
<title>Node2&#45;&gt;Node4</title>
<path fill="none" stroke="midnightblue" d="M167.43,-56.32C156.58,-48.18 140.12,-35.84 127.12,-26.09"/>
<polygon fill="midnightblue" stroke="midnightblue" points="128.88,-23.03 118.78,-19.83 124.68,-28.63 128.88,-23.03"/>
</g>
<!-- Node2&#45;&gt;Node5 -->
<g id="edge4" class="edge">
<title>Node2&#45;&gt;Node5</title>
<path fill="none" stroke="midnightblue" d="M188.16,-56.32C196.5,-48.42 209.03,-36.55 219.18,-26.94"/>
<polygon fill="midnightblue" stroke="midnightblue" points="221.82,-29.25 226.68,-19.83 217.01,-24.17 221.82,-29.25"/>
</g>
<!-- Node6 -->
<g id="node6" class="node">
<title>Node6</title>
<g id="a_node6"><a xlink:title=" ">
<polygon fill="white" stroke="#bfbfbf" points="154,-0.5 154,-19.5 196,-19.5 196,-0.5 154,-0.5"/>
<text text-anchor="middle" x="175" y="-7.5" font-family="Helvetica,sans-Serif" font-size="10.00">array</text>
</a>
</g>
</g>
<!-- Node2&#45;&gt;Node6 -->
<g id="edge5" class="edge">
<title>Node2&#45;&gt;Node6</title>
<path fill="none" stroke="midnightblue" d="M178.34,-56.08C177.82,-49.01 177.06,-38.86 176.41,-29.99"/>
<polygon fill="midnightblue" stroke="midnightblue" points="179.88,-29.47 175.65,-19.75 172.9,-29.98 179.88,-29.47"/>
</g>
<!-- Node2&#45;&gt;Node7 -->
<g id="edge6" class="edge">
<title>Node2&#45;&gt;Node7</title>
<path fill="none" stroke="midnightblue" d="M198.17,-56.44C217.91,-47.64 248.89,-33.81 271.49,-23.72"/>
<polygon fill="midnightblue" stroke="midnightblue" points="273.21,-26.79 280.92,-19.52 270.36,-20.4 273.21,-26.79"/>
</g>
</g>
</svg>
