<?xml version="1.0" encoding="UTF-8" standalone="no"?>
<!DOCTYPE svg PUBLIC "-//W3C//DTD SVG 1.1//EN"
 "http://www.w3.org/Graphics/SVG/1.1/DTD/svg11.dtd">
<!-- Generated by graphviz version 2.49.0 (0)
 -->
<!-- Title: Ellipse.h Pages: 1 -->
<svg width="349pt" height="252pt"
 viewBox="0.00 0.00 349.00 252.00" xmlns="http://www.w3.org/2000/svg" xmlns:xlink="http://www.w3.org/1999/xlink">
<g id="graph0" class="graph" transform="scale(1 1) rotate(0) translate(4 248)">
<title>Ellipse.h</title>
<polygon fill="white" stroke="transparent" points="-4,4 -4,-248 345,-248 345,4 -4,4"/>
<!-- Node1 -->
<g id="node1" class="node">
<title>Node1</title>
<g id="a_node1"><a xlink:title="Ellipse class interface and implementation.">
<polygon fill="#bfbfbf" stroke="black" points="205,-224.5 205,-243.5 263,-243.5 263,-224.5 205,-224.5"/>
<text text-anchor="middle" x="234" y="-231.5" font-family="Helvetica,sans-Serif" font-size="10.00">Ellipse.h</text>
</a>
</g>
</g>
<!-- Node2 -->
<g id="node2" class="node">
<title>Node2</title>
<g id="a_node2"><a xlink:href="_line_8h.html" target="_top" xlink:title="Line class interface and implementation.">
<polygon fill="white" stroke="black" points="211,-168.5 211,-187.5 257,-187.5 257,-168.5 211,-168.5"/>
<text text-anchor="middle" x="234" y="-175.5" font-family="Helvetica,sans-Serif" font-size="10.00">Line.h</text>
</a>
</g>
</g>
<!-- Node1&#45;&gt;Node2 -->
<g id="edge1" class="edge">
<title>Node1&#45;&gt;Node2</title>
<path fill="none" stroke="midnightblue" d="M234,-224.08C234,-217.01 234,-206.86 234,-197.99"/>
<polygon fill="midnightblue" stroke="midnightblue" points="237.5,-197.75 234,-187.75 230.5,-197.75 237.5,-197.75"/>
</g>
<!-- Node8 -->
<g id="node8" class="node">
<title>Node8</title>
<g id="a_node8"><a xlink:title=" ">
<polygon fill="white" stroke="#bfbfbf" points="297,-0.5 297,-19.5 341,-19.5 341,-0.5 297,-0.5"/>
<text text-anchor="middle" x="319" y="-7.5" font-family="Helvetica,sans-Serif" font-size="10.00">string</text>
</a>
</g>
</g>
<!-- Node1&#45;&gt;Node8 -->
<g id="edge15" class="edge">
<title>Node1&#45;&gt;Node8</title>
<path fill="none" stroke="midnightblue" d="M241.42,-224.18C248.49,-215.45 259.05,-201.46 266,-188 293.91,-133.95 309.55,-62.85 315.79,-29.62"/>
<polygon fill="midnightblue" stroke="midnightblue" points="319.28,-30 317.61,-19.53 312.39,-28.75 319.28,-30"/>
</g>
<!-- Node10 -->
<g id="node10" class="node">
<title>Node10</title>
<g id="a_node10"><a xlink:title=" ">
<polygon fill="white" stroke="#bfbfbf" points="116.5,-56.5 116.5,-75.5 163.5,-75.5 163.5,-56.5 116.5,-56.5"/>
<text text-anchor="middle" x="140" y="-63.5" font-family="Helvetica,sans-Serif" font-size="10.00">cmath</text>
</a>
</g>
</g>
<!-- Node1&#45;&gt;Node10 -->
<g id="edge14" class="edge">
<title>Node1&#45;&gt;Node10</title>
<path fill="none" stroke="midnightblue" d="M224.67,-224.25C207.79,-207.84 172.24,-170.64 154,-132 147.07,-117.32 143.53,-99.15 141.75,-85.76"/>
<polygon fill="midnightblue" stroke="midnightblue" points="145.22,-85.36 140.62,-75.82 138.27,-86.15 145.22,-85.36"/>
</g>
<!-- Node3 -->
<g id="node3" class="node">
<title>Node3</title>
<g id="a_node3"><a xlink:href="_curve_8h.html" target="_top" xlink:title="Curve class interface and implementation. Curve class is base class.">
<polygon fill="white" stroke="black" points="180,-112.5 180,-131.5 234,-131.5 234,-112.5 180,-112.5"/>
<text text-anchor="middle" x="207" y="-119.5" font-family="Helvetica,sans-Serif" font-size="10.00">Curve.h</text>
</a>
</g>
</g>
<!-- Node2&#45;&gt;Node3 -->
<g id="edge2" class="edge">
<title>Node2&#45;&gt;Node3</title>
<path fill="none" stroke="midnightblue" d="M229.54,-168.08C225.85,-160.69 220.48,-149.95 215.91,-140.81"/>
<polygon fill="midnightblue" stroke="midnightblue" points="218.98,-139.13 211.38,-131.75 212.72,-142.26 218.98,-139.13"/>
</g>
<!-- Node4 -->
<g id="node4" class="node">
<title>Node4</title>
<g id="a_node4"><a xlink:href="_point_8h.html" target="_top" xlink:title="Point class interface and implementation.">
<polygon fill="white" stroke="black" points="182,-56.5 182,-75.5 232,-75.5 232,-56.5 182,-56.5"/>
<text text-anchor="middle" x="207" y="-63.5" font-family="Helvetica,sans-Serif" font-size="10.00">Point.h</text>
</a>
</g>
</g>
<!-- Node2&#45;&gt;Node4 -->
<g id="edge11" class="edge">
<title>Node2&#45;&gt;Node4</title>
<path fill="none" stroke="midnightblue" d="M237.7,-168.33C242.58,-155.62 249.79,-131.35 243,-112 239.21,-101.21 231.63,-91.08 224.4,-83.18"/>
<polygon fill="midnightblue" stroke="midnightblue" points="226.67,-80.49 217.16,-75.81 221.67,-85.4 226.67,-80.49"/>
</g>
<!-- Node2&#45;&gt;Node8 -->
<g id="edge13" class="edge">
<title>Node2&#45;&gt;Node8</title>
<path fill="none" stroke="midnightblue" d="M238.66,-168.4C243.54,-159.37 251.4,-144.73 258,-132 276.96,-95.43 298.52,-52.29 310.25,-28.66"/>
<polygon fill="midnightblue" stroke="midnightblue" points="313.47,-30.06 314.78,-19.54 307.2,-26.95 313.47,-30.06"/>
</g>
<!-- Node2&#45;&gt;Node10 -->
<g id="edge12" class="edge">
<title>Node2&#45;&gt;Node10</title>
<path fill="none" stroke="midnightblue" d="M217.48,-168.35C203.62,-160.41 184.04,-147.55 171,-132 159.46,-118.24 151.12,-99.46 146.01,-85.63"/>
<polygon fill="midnightblue" stroke="midnightblue" points="149.18,-84.09 142.61,-75.78 142.56,-86.38 149.18,-84.09"/>
</g>
<!-- Node3&#45;&gt;Node4 -->
<g id="edge3" class="edge">
<title>Node3&#45;&gt;Node4</title>
<path fill="none" stroke="midnightblue" d="M207,-112.08C207,-105.01 207,-94.86 207,-85.99"/>
<polygon fill="midnightblue" stroke="midnightblue" points="210.5,-85.75 207,-75.75 203.5,-85.75 210.5,-85.75"/>
</g>
<!-- Node3&#45;&gt;Node8 -->
<g id="edge10" class="edge">
<title>Node3&#45;&gt;Node8</title>
<path fill="none" stroke="midnightblue" d="M215.79,-112.37C234.6,-93.89 278.99,-50.29 302.97,-26.74"/>
<polygon fill="midnightblue" stroke="midnightblue" points="305.57,-29.1 310.25,-19.59 300.67,-24.1 305.57,-29.1"/>
</g>
<!-- Node3&#45;&gt;Node10 -->
<g id="edge9" class="edge">
<title>Node3&#45;&gt;Node10</title>
<path fill="none" stroke="midnightblue" d="M196.24,-112.32C186.23,-104.26 171.11,-92.08 159.07,-82.37"/>
<polygon fill="midnightblue" stroke="midnightblue" points="160.94,-79.38 150.96,-75.83 156.55,-84.83 160.94,-79.38"/>
</g>
<!-- Node5 -->
<g id="node5" class="node">
<title>Node5</title>
<g id="a_node5"><a xlink:title=" ">
<polygon fill="white" stroke="#bfbfbf" points="0,-0.5 0,-19.5 60,-19.5 60,-0.5 0,-0.5"/>
<text text-anchor="middle" x="30" y="-7.5" font-family="Helvetica,sans-Serif" font-size="10.00">iostream</text>
</a>
</g>
</g>
<!-- Node4&#45;&gt;Node5 -->
<g id="edge4" class="edge">
<title>Node4&#45;&gt;Node5</title>
<path fill="none" stroke="midnightblue" d="M181.64,-57.26C151.8,-48.16 101.97,-32.96 67.63,-22.48"/>
<polygon fill="midnightblue" stroke="midnightblue" points="68.53,-19.09 57.94,-19.52 66.48,-25.79 68.53,-19.09"/>
</g>
<!-- Node6 -->
<g id="node6" class="node">
<title>Node6</title>
<g id="a_node6"><a xlink:href="consts_8h.html" target="_top" xlink:title="Constants.">
<polygon fill="white" stroke="black" points="78.5,-0.5 78.5,-19.5 135.5,-19.5 135.5,-0.5 78.5,-0.5"/>
<text text-anchor="middle" x="107" y="-7.5" font-family="Helvetica,sans-Serif" font-size="10.00">consts.h</text>
</a>
</g>
</g>
<!-- Node4&#45;&gt;Node6 -->
<g id="edge5" class="edge">
<title>Node4&#45;&gt;Node6</title>
<path fill="none" stroke="midnightblue" d="M190.93,-56.32C175.04,-47.74 150.49,-34.49 132.04,-24.52"/>
<polygon fill="midnightblue" stroke="midnightblue" points="133.49,-21.33 123.03,-19.65 130.16,-27.49 133.49,-21.33"/>
</g>
<!-- Node7 -->
<g id="node7" class="node">
<title>Node7</title>
<g id="a_node7"><a xlink:title=" ">
<polygon fill="white" stroke="#bfbfbf" points="153.5,-0.5 153.5,-19.5 218.5,-19.5 218.5,-0.5 153.5,-0.5"/>
<text text-anchor="middle" x="186" y="-7.5" font-family="Helvetica,sans-Serif" font-size="10.00">stdexcept</text>
</a>
</g>
</g>
<!-- Node4&#45;&gt;Node7 -->
<g id="edge6" class="edge">
<title>Node4&#45;&gt;Node7</title>
<path fill="none" stroke="midnightblue" d="M203.53,-56.08C200.69,-48.77 196.57,-38.18 193.04,-29.1"/>
<polygon fill="midnightblue" stroke="midnightblue" points="196.29,-27.8 189.4,-19.75 189.77,-30.34 196.29,-27.8"/>
</g>
<!-- Node4&#45;&gt;Node8 -->
<g id="edge7" class="edge">
<title>Node4&#45;&gt;Node8</title>
<path fill="none" stroke="midnightblue" d="M224.99,-56.32C243.04,-47.62 271.05,-34.12 291.8,-24.11"/>
<polygon fill="midnightblue" stroke="midnightblue" points="293.56,-27.15 301.05,-19.65 290.52,-20.84 293.56,-27.15"/>
</g>
<!-- Node9 -->
<g id="node9" class="node">
<title>Node9</title>
<g id="a_node9"><a xlink:title=" ">
<polygon fill="white" stroke="#bfbfbf" points="237,-0.5 237,-19.5 279,-19.5 279,-0.5 237,-0.5"/>
<text text-anchor="middle" x="258" y="-7.5" font-family="Helvetica,sans-Serif" font-size="10.00">array</text>
</a>
</g>
</g>
<!-- Node4&#45;&gt;Node9 -->
<g id="edge8" class="edge">
<title>Node4&#45;&gt;Node9</title>
<path fill="none" stroke="midnightblue" d="M215.42,-56.08C222.85,-48.22 233.85,-36.57 242.81,-27.08"/>
<polygon fill="midnightblue" stroke="midnightblue" points="245.41,-29.42 249.74,-19.75 240.32,-24.62 245.41,-29.42"/>
</g>
</g>
</svg>
