<?xml version="1.0" encoding="UTF-8" standalone="no"?>
<!DOCTYPE svg PUBLIC "-//W3C//DTD SVG 1.1//EN"
 "http://www.w3.org/Graphics/SVG/1.1/DTD/svg11.dtd">
<!-- Generated by graphviz version 2.49.0 (0)
 -->
<!-- Title: Line.h Pages: 1 -->
<svg width="349pt" height="196pt"
 viewBox="0.00 0.00 349.00 196.00" xmlns="http://www.w3.org/2000/svg" xmlns:xlink="http://www.w3.org/1999/xlink">
<g id="graph0" class="graph" transform="scale(1 1) rotate(0) translate(4 192)">
<title>Line.h</title>
<polygon fill="white" stroke="transparent" points="-4,4 -4,-192 345,-192 345,4 -4,4"/>
<!-- Node1 -->
<g id="node1" class="node">
<title>Node1</title>
<g id="a_node1"><a xlink:title="Line class interface and implementation.">
<polygon fill="#bfbfbf" stroke="black" points="244,-168.5 244,-187.5 290,-187.5 290,-168.5 244,-168.5"/>
<text text-anchor="middle" x="267" y="-175.5" font-family="Helvetica,sans-Serif" font-size="10.00">Line.h</text>
</a>
</g>
</g>
<!-- Node2 -->
<g id="node2" class="node">
<title>Node2</title>
<g id="a_node2"><a xlink:href="_curve_8h.html" target="_top" xlink:title="Curve class interface and implementation. Curve class is base class.">
<polygon fill="white" stroke="black" points="213,-112.5 213,-131.5 267,-131.5 267,-112.5 213,-112.5"/>
<text text-anchor="middle" x="240" y="-119.5" font-family="Helvetica,sans-Serif" font-size="10.00">Curve.h</text>
</a>
</g>
</g>
<!-- Node1&#45;&gt;Node2 -->
<g id="edge1" class="edge">
<title>Node1&#45;&gt;Node2</title>
<path fill="none" stroke="midnightblue" d="M262.54,-168.08C258.85,-160.69 253.48,-149.95 248.91,-140.81"/>
<polygon fill="midnightblue" stroke="midnightblue" points="251.98,-139.13 244.38,-131.75 245.72,-142.26 251.98,-139.13"/>
</g>
<!-- Node3 -->
<g id="node3" class="node">
<title>Node3</title>
<g id="a_node3"><a xlink:href="_point_8h.html" target="_top" xlink:title="Point class interface and implementation.">
<polygon fill="white" stroke="black" points="161,-56.5 161,-75.5 211,-75.5 211,-56.5 161,-56.5"/>
<text text-anchor="middle" x="186" y="-63.5" font-family="Helvetica,sans-Serif" font-size="10.00">Point.h</text>
</a>
</g>
</g>
<!-- Node1&#45;&gt;Node3 -->
<g id="edge10" class="edge">
<title>Node1&#45;&gt;Node3</title>
<path fill="none" stroke="midnightblue" d="M248.91,-168.43C234.68,-160.79 215.4,-148.3 204,-132 194.46,-118.36 189.96,-99.82 187.85,-86.03"/>
<polygon fill="midnightblue" stroke="midnightblue" points="191.28,-85.27 186.58,-75.78 184.34,-86.13 191.28,-85.27"/>
</g>
<!-- Node7 -->
<g id="node7" class="node">
<title>Node7</title>
<g id="a_node7"><a xlink:title=" ">
<polygon fill="white" stroke="#bfbfbf" points="297,-0.5 297,-19.5 341,-19.5 341,-0.5 297,-0.5"/>
<text text-anchor="middle" x="319" y="-7.5" font-family="Helvetica,sans-Serif" font-size="10.00">string</text>
</a>
</g>
</g>
<!-- Node1&#45;&gt;Node7 -->
<g id="edge12" class="edge">
<title>Node1&#45;&gt;Node7</title>
<path fill="none" stroke="midnightblue" d="M273.89,-168.5C286.82,-151.92 314.28,-113.62 324,-76 327.94,-60.74 326.12,-42.86 323.63,-29.71"/>
<polygon fill="midnightblue" stroke="midnightblue" points="326.97,-28.59 321.41,-19.57 320.13,-30.09 326.97,-28.59"/>
</g>
<!-- Node9 -->
<g id="node9" class="node">
<title>Node9</title>
<g id="a_node9"><a xlink:title=" ">
<polygon fill="white" stroke="#bfbfbf" points="267.5,-56.5 267.5,-75.5 314.5,-75.5 314.5,-56.5 267.5,-56.5"/>
<text text-anchor="middle" x="291" y="-63.5" font-family="Helvetica,sans-Serif" font-size="10.00">cmath</text>
</a>
</g>
</g>
<!-- Node1&#45;&gt;Node9 -->
<g id="edge11" class="edge">
<title>Node1&#45;&gt;Node9</title>
<path fill="none" stroke="midnightblue" d="M268.88,-168.37C272.76,-150.62 281.69,-109.67 286.94,-85.6"/>
<polygon fill="midnightblue" stroke="midnightblue" points="290.41,-86.11 289.13,-75.59 283.57,-84.62 290.41,-86.11"/>
</g>
<!-- Node2&#45;&gt;Node3 -->
<g id="edge2" class="edge">
<title>Node2&#45;&gt;Node3</title>
<path fill="none" stroke="midnightblue" d="M231.08,-112.08C223.22,-104.22 211.57,-92.57 202.08,-83.08"/>
<polygon fill="midnightblue" stroke="midnightblue" points="204.3,-80.35 194.75,-75.75 199.35,-85.3 204.3,-80.35"/>
</g>
<!-- Node2&#45;&gt;Node7 -->
<g id="edge9" class="edge">
<title>Node2&#45;&gt;Node7</title>
<path fill="none" stroke="midnightblue" d="M240.79,-112.26C242.35,-99.02 246.82,-73.59 259,-56 267.8,-43.29 281.35,-32.69 293.34,-24.98"/>
<polygon fill="midnightblue" stroke="midnightblue" points="295.38,-27.84 302.11,-19.65 291.74,-21.85 295.38,-27.84"/>
</g>
<!-- Node2&#45;&gt;Node9 -->
<g id="edge8" class="edge">
<title>Node2&#45;&gt;Node9</title>
<path fill="none" stroke="midnightblue" d="M248.42,-112.08C255.85,-104.22 266.85,-92.57 275.81,-83.08"/>
<polygon fill="midnightblue" stroke="midnightblue" points="278.41,-85.42 282.74,-75.75 273.32,-80.62 278.41,-85.42"/>
</g>
<!-- Node4 -->
<g id="node4" class="node">
<title>Node4</title>
<g id="a_node4"><a xlink:title=" ">
<polygon fill="white" stroke="#bfbfbf" points="0,-0.5 0,-19.5 60,-19.5 60,-0.5 0,-0.5"/>
<text text-anchor="middle" x="30" y="-7.5" font-family="Helvetica,sans-Serif" font-size="10.00">iostream</text>
</a>
</g>
</g>
<!-- Node3&#45;&gt;Node4 -->
<g id="edge3" class="edge">
<title>Node3&#45;&gt;Node4</title>
<path fill="none" stroke="midnightblue" d="M161.28,-56.44C135.15,-47.4 93.74,-33.06 64.42,-22.92"/>
<polygon fill="midnightblue" stroke="midnightblue" points="65.2,-19.48 54.6,-19.52 62.91,-26.1 65.2,-19.48"/>
</g>
<!-- Node5 -->
<g id="node5" class="node">
<title>Node5</title>
<g id="a_node5"><a xlink:href="consts_8h.html" target="_top" xlink:title="Constants.">
<polygon fill="white" stroke="black" points="78.5,-0.5 78.5,-19.5 135.5,-19.5 135.5,-0.5 78.5,-0.5"/>
<text text-anchor="middle" x="107" y="-7.5" font-family="Helvetica,sans-Serif" font-size="10.00">consts.h</text>
</a>
</g>
</g>
<!-- Node3&#45;&gt;Node5 -->
<g id="edge4" class="edge">
<title>Node3&#45;&gt;Node5</title>
<path fill="none" stroke="midnightblue" d="M173.31,-56.32C161.1,-47.98 142.42,-35.21 128,-25.35"/>
<polygon fill="midnightblue" stroke="midnightblue" points="129.89,-22.41 119.66,-19.65 125.94,-28.19 129.89,-22.41"/>
</g>
<!-- Node6 -->
<g id="node6" class="node">
<title>Node6</title>
<g id="a_node6"><a xlink:title=" ">
<polygon fill="white" stroke="#bfbfbf" points="153.5,-0.5 153.5,-19.5 218.5,-19.5 218.5,-0.5 153.5,-0.5"/>
<text text-anchor="middle" x="186" y="-7.5" font-family="Helvetica,sans-Serif" font-size="10.00">stdexcept</text>
</a>
</g>
</g>
<!-- Node3&#45;&gt;Node6 -->
<g id="edge5" class="edge">
<title>Node3&#45;&gt;Node6</title>
<path fill="none" stroke="midnightblue" d="M186,-56.08C186,-49.01 186,-38.86 186,-29.99"/>
<polygon fill="midnightblue" stroke="midnightblue" points="189.5,-29.75 186,-19.75 182.5,-29.75 189.5,-29.75"/>
</g>
<!-- Node3&#45;&gt;Node7 -->
<g id="edge6" class="edge">
<title>Node3&#45;&gt;Node7</title>
<path fill="none" stroke="midnightblue" d="M207.07,-56.44C229.06,-47.52 263.73,-33.44 288.66,-23.32"/>
<polygon fill="midnightblue" stroke="midnightblue" points="290.08,-26.52 298.02,-19.52 287.44,-20.04 290.08,-26.52"/>
</g>
<!-- Node8 -->
<g id="node8" class="node">
<title>Node8</title>
<g id="a_node8"><a xlink:title=" ">
<polygon fill="white" stroke="#bfbfbf" points="237,-0.5 237,-19.5 279,-19.5 279,-0.5 237,-0.5"/>
<text text-anchor="middle" x="258" y="-7.5" font-family="Helvetica,sans-Serif" font-size="10.00">array</text>
</a>
</g>
</g>
<!-- Node3&#45;&gt;Node8 -->
<g id="edge7" class="edge">
<title>Node3&#45;&gt;Node8</title>
<path fill="none" stroke="midnightblue" d="M197.57,-56.32C208.42,-48.18 224.88,-35.84 237.88,-26.09"/>
<polygon fill="midnightblue" stroke="midnightblue" points="240.32,-28.63 246.22,-19.83 236.12,-23.03 240.32,-28.63"/>
</g>
</g>
</svg>
