<?xml version="1.0" encoding="UTF-8" standalone="no"?>
<!DOCTYPE svg PUBLIC "-//W3C//DTD SVG 1.1//EN"
 "http://www.w3.org/Graphics/SVG/1.1/DTD/svg11.dtd">
<!-- Generated by graphviz version 2.49.0 (0)
 -->
<!-- Title: Line.h Pages: 1 -->
<svg width="96pt" height="140pt"
 viewBox="0.00 0.00 96.00 140.00" xmlns="http://www.w3.org/2000/svg" xmlns:xlink="http://www.w3.org/1999/xlink">
<g id="graph0" class="graph" transform="scale(1 1) rotate(0) translate(4 136)">
<title>Line.h</title>
<polygon fill="white" stroke="transparent" points="-4,4 -4,-136 92,-136 92,4 -4,4"/>
<!-- Node1 -->
<g id="node1" class="node">
<title>Node1</title>
<g id="a_node1"><a xlink:title="Line class interface and implementation.">
<polygon fill="#bfbfbf" stroke="black" points="34,-112.5 34,-131.5 80,-131.5 80,-112.5 34,-112.5"/>
<text text-anchor="middle" x="57" y="-119.5" font-family="Helvetica,sans-Serif" font-size="10.00">Line.h</text>
</a>
</g>
</g>
<!-- Node2 -->
<g id="node2" class="node">
<title>Node2</title>
<g id="a_node2"><a xlink:href="_ellipse_8h.html" target="_top" xlink:title="Ellipse class interface and implementation.">
<polygon fill="white" stroke="black" points="0,-56.5 0,-75.5 58,-75.5 58,-56.5 0,-56.5"/>
<text text-anchor="middle" x="29" y="-63.5" font-family="Helvetica,sans-Serif" font-size="10.00">Ellipse.h</text>
</a>
</g>
</g>
<!-- Node1&#45;&gt;Node2 -->
<g id="edge1" class="edge">
<title>Node1&#45;&gt;Node2</title>
<path fill="none" stroke="midnightblue" d="M47.66,-102.98C42.91,-93.82 37.34,-83.09 33.54,-75.75"/>
<polygon fill="midnightblue" stroke="midnightblue" points="44.67,-104.82 52.38,-112.08 50.88,-101.59 44.67,-104.82"/>
</g>
<!-- Node3 -->
<g id="node3" class="node">
<title>Node3</title>
<g id="a_node3"><a xlink:href="main_8cpp.html" target="_top" xlink:title=" ">
<polygon fill="white" stroke="black" points="26,-0.5 26,-19.5 88,-19.5 88,-0.5 26,-0.5"/>
<text text-anchor="middle" x="57" y="-7.5" font-family="Helvetica,sans-Serif" font-size="10.00">main.cpp</text>
</a>
</g>
</g>
<!-- Node1&#45;&gt;Node3 -->
<g id="edge3" class="edge">
<title>Node1&#45;&gt;Node3</title>
<path fill="none" stroke="midnightblue" d="M62.53,-102.19C65.69,-89.24 68.72,-71.62 67,-56 65.59,-43.11 61.96,-28.52 59.48,-19.53"/>
<polygon fill="midnightblue" stroke="midnightblue" points="59.06,-101.63 59.84,-112.2 65.82,-103.46 59.06,-101.63"/>
</g>
<!-- Node2&#45;&gt;Node3 -->
<g id="edge2" class="edge">
<title>Node2&#45;&gt;Node3</title>
<path fill="none" stroke="midnightblue" d="M38.34,-46.98C43.09,-37.82 48.66,-27.09 52.46,-19.75"/>
<polygon fill="midnightblue" stroke="midnightblue" points="35.12,-45.59 33.62,-56.08 41.33,-48.82 35.12,-45.59"/>
</g>
</g>
</svg>
