<?xml version="1.0" encoding="UTF-8" standalone="no"?>
<!DOCTYPE svg PUBLIC "-//W3C//DTD SVG 1.1//EN"
 "http://www.w3.org/Graphics/SVG/1.1/DTD/svg11.dtd">
<!-- Generated by graphviz version 2.49.0 (0)
 -->
<!-- Title: Point.h Pages: 1 -->
<svg width="162pt" height="252pt"
 viewBox="0.00 0.00 162.33 252.00" xmlns="http://www.w3.org/2000/svg" xmlns:xlink="http://www.w3.org/1999/xlink">
<g id="graph0" class="graph" transform="scale(1 1) rotate(0) translate(4 248)">
<title>Point.h</title>
<polygon fill="white" stroke="transparent" points="-4,4 -4,-248 158.33,-248 158.33,4 -4,4"/>
<!-- Node1 -->
<g id="node1" class="node">
<title>Node1</title>
<g id="a_node1"><a xlink:title="Point class interface and implementation.">
<polygon fill="#bfbfbf" stroke="black" points="87,-224.5 87,-243.5 137,-243.5 137,-224.5 87,-224.5"/>
<text text-anchor="middle" x="112" y="-231.5" font-family="Helvetica,sans-Serif" font-size="10.00">Point.h</text>
</a>
</g>
</g>
<!-- Node2 -->
<g id="node2" class="node">
<title>Node2</title>
<g id="a_node2"><a xlink:href="_curve_8h.html" target="_top" xlink:title="Curve class interface and implementation. Curve class is base class.">
<polygon fill="white" stroke="black" points="85,-168.5 85,-187.5 139,-187.5 139,-168.5 85,-168.5"/>
<text text-anchor="middle" x="112" y="-175.5" font-family="Helvetica,sans-Serif" font-size="10.00">Curve.h</text>
</a>
</g>
</g>
<!-- Node1&#45;&gt;Node2 -->
<g id="edge1" class="edge">
<title>Node1&#45;&gt;Node2</title>
<path fill="none" stroke="midnightblue" d="M112,-213.8C112,-204.91 112,-194.78 112,-187.75"/>
<polygon fill="midnightblue" stroke="midnightblue" points="108.5,-214.08 112,-224.08 115.5,-214.08 108.5,-214.08"/>
</g>
<!-- Node3 -->
<g id="node3" class="node">
<title>Node3</title>
<g id="a_node3"><a xlink:href="_line_8h.html" target="_top" xlink:title="Line class interface and implementation.">
<polygon fill="white" stroke="black" points="44,-112.5 44,-131.5 90,-131.5 90,-112.5 44,-112.5"/>
<text text-anchor="middle" x="67" y="-119.5" font-family="Helvetica,sans-Serif" font-size="10.00">Line.h</text>
</a>
</g>
</g>
<!-- Node1&#45;&gt;Node3 -->
<g id="edge7" class="edge">
<title>Node1&#45;&gt;Node3</title>
<path fill="none" stroke="midnightblue" d="M95.55,-216.87C88.38,-208.86 80.58,-198.64 76,-188 67.9,-169.16 66.74,-144.68 66.77,-131.8"/>
<polygon fill="midnightblue" stroke="midnightblue" points="93.21,-219.49 102.63,-224.33 98.29,-214.67 93.21,-219.49"/>
</g>
<!-- Node5 -->
<g id="node5" class="node">
<title>Node5</title>
<g id="a_node5"><a xlink:href="main_8cpp.html" target="_top" xlink:title=" ">
<polygon fill="white" stroke="black" points="74,-0.5 74,-19.5 136,-19.5 136,-0.5 74,-0.5"/>
<text text-anchor="middle" x="105" y="-7.5" font-family="Helvetica,sans-Serif" font-size="10.00">main.cpp</text>
</a>
</g>
</g>
<!-- Node1&#45;&gt;Node5 -->
<g id="edge8" class="edge">
<title>Node1&#45;&gt;Node5</title>
<path fill="none" stroke="midnightblue" d="M129.4,-216.82C136.63,-208.92 144.21,-198.79 148,-188 170.09,-125.04 126.55,-45.62 110.57,-19.65"/>
<polygon fill="midnightblue" stroke="midnightblue" points="126.67,-214.6 122.16,-224.19 131.67,-219.51 126.67,-214.6"/>
</g>
<!-- Node2&#45;&gt;Node3 -->
<g id="edge2" class="edge">
<title>Node2&#45;&gt;Node3</title>
<path fill="none" stroke="midnightblue" d="M97.95,-160.14C90.11,-150.74 80.67,-139.4 74.29,-131.75"/>
<polygon fill="midnightblue" stroke="midnightblue" points="95.48,-162.64 104.57,-168.08 100.86,-158.16 95.48,-162.64"/>
</g>
<!-- Node2&#45;&gt;Node5 -->
<g id="edge6" class="edge">
<title>Node2&#45;&gt;Node5</title>
<path fill="none" stroke="midnightblue" d="M111.2,-157.93C109.68,-121.92 106.44,-45.23 105.36,-19.57"/>
<polygon fill="midnightblue" stroke="midnightblue" points="107.71,-158.23 111.62,-168.08 114.7,-157.94 107.71,-158.23"/>
</g>
<!-- Node4 -->
<g id="node4" class="node">
<title>Node4</title>
<g id="a_node4"><a xlink:href="_ellipse_8h.html" target="_top" xlink:title="Ellipse class interface and implementation.">
<polygon fill="white" stroke="black" points="0,-56.5 0,-75.5 58,-75.5 58,-56.5 0,-56.5"/>
<text text-anchor="middle" x="29" y="-63.5" font-family="Helvetica,sans-Serif" font-size="10.00">Ellipse.h</text>
</a>
</g>
</g>
<!-- Node3&#45;&gt;Node4 -->
<g id="edge3" class="edge">
<title>Node3&#45;&gt;Node4</title>
<path fill="none" stroke="midnightblue" d="M54.94,-103.86C48.36,-94.5 40.49,-83.33 35.16,-75.75"/>
<polygon fill="midnightblue" stroke="midnightblue" points="52.11,-105.92 60.73,-112.08 57.83,-101.89 52.11,-105.92"/>
</g>
<!-- Node3&#45;&gt;Node5 -->
<g id="edge5" class="edge">
<title>Node3&#45;&gt;Node5</title>
<path fill="none" stroke="midnightblue" d="M73.33,-102.67C81.64,-78.62 95.88,-37.39 102.03,-19.59"/>
<polygon fill="midnightblue" stroke="midnightblue" points="69.94,-101.77 69.98,-112.37 76.56,-104.06 69.94,-101.77"/>
</g>
<!-- Node4&#45;&gt;Node5 -->
<g id="edge4" class="edge">
<title>Node4&#45;&gt;Node5</title>
<path fill="none" stroke="midnightblue" d="M49.58,-50.38C63.31,-40.62 80.93,-28.11 92.57,-19.83"/>
<polygon fill="midnightblue" stroke="midnightblue" points="47.34,-47.68 41.21,-56.32 51.39,-53.38 47.34,-47.68"/>
</g>
</g>
</svg>
