<?xml version="1.0" encoding="UTF-8" standalone="no"?>
<!DOCTYPE svg PUBLIC "-//W3C//DTD SVG 1.1//EN"
 "http://www.w3.org/Graphics/SVG/1.1/DTD/svg11.dtd">
<!-- Generated by graphviz version 2.49.0 (0)
 -->
<!-- Title: consts.h Pages: 1 -->
<svg width="208pt" height="308pt"
 viewBox="0.00 0.00 208.00 308.00" xmlns="http://www.w3.org/2000/svg" xmlns:xlink="http://www.w3.org/1999/xlink">
<g id="graph0" class="graph" transform="scale(1 1) rotate(0) translate(4 304)">
<title>consts.h</title>
<polygon fill="white" stroke="transparent" points="-4,4 -4,-304 204,-304 204,4 -4,4"/>
<!-- Node1 -->
<g id="node1" class="node">
<title>Node1</title>
<g id="a_node1"><a xlink:title="Constants.">
<polygon fill="#bfbfbf" stroke="black" points="124.5,-280.5 124.5,-299.5 181.5,-299.5 181.5,-280.5 124.5,-280.5"/>
<text text-anchor="middle" x="153" y="-287.5" font-family="Helvetica,sans-Serif" font-size="10.00">consts.h</text>
</a>
</g>
</g>
<!-- Node2 -->
<g id="node2" class="node">
<title>Node2</title>
<g id="a_node2"><a xlink:href="_point_8h.html" target="_top" xlink:title="Point class interface and implementation.">
<polygon fill="white" stroke="black" points="102,-224.5 102,-243.5 152,-243.5 152,-224.5 102,-224.5"/>
<text text-anchor="middle" x="127" y="-231.5" font-family="Helvetica,sans-Serif" font-size="10.00">Point.h</text>
</a>
</g>
</g>
<!-- Node1&#45;&gt;Node2 -->
<g id="edge1" class="edge">
<title>Node1&#45;&gt;Node2</title>
<path fill="none" stroke="midnightblue" d="M144.33,-270.98C139.91,-261.82 134.75,-251.09 131.21,-243.75"/>
<polygon fill="midnightblue" stroke="midnightblue" points="141.21,-272.59 148.71,-280.08 147.52,-269.55 141.21,-272.59"/>
</g>
<!-- Node6 -->
<g id="node6" class="node">
<title>Node6</title>
<g id="a_node6"><a xlink:href="main_8cpp.html" target="_top" xlink:title=" ">
<polygon fill="white" stroke="black" points="93,-0.5 93,-19.5 155,-19.5 155,-0.5 93,-0.5"/>
<text text-anchor="middle" x="124" y="-7.5" font-family="Helvetica,sans-Serif" font-size="10.00">main.cpp</text>
</a>
</g>
</g>
<!-- Node1&#45;&gt;Node6 -->
<g id="edge10" class="edge">
<title>Node1&#45;&gt;Node6</title>
<path fill="none" stroke="midnightblue" d="M165.36,-272.04C179.28,-251.21 200,-214.3 200,-179 200,-179 200,-179 200,-121 200,-76.2 156.8,-36.43 135.54,-19.57"/>
<polygon fill="midnightblue" stroke="midnightblue" points="162.37,-270.2 159.54,-280.41 168.12,-274.2 162.37,-270.2"/>
</g>
<!-- Node3 -->
<g id="node3" class="node">
<title>Node3</title>
<g id="a_node3"><a xlink:href="_curve_8h.html" target="_top" xlink:title="Curve class interface and implementation. Curve class is base class.">
<polygon fill="white" stroke="black" points="80,-168.5 80,-187.5 134,-187.5 134,-168.5 80,-168.5"/>
<text text-anchor="middle" x="107" y="-175.5" font-family="Helvetica,sans-Serif" font-size="10.00">Curve.h</text>
</a>
</g>
</g>
<!-- Node2&#45;&gt;Node3 -->
<g id="edge2" class="edge">
<title>Node2&#45;&gt;Node3</title>
<path fill="none" stroke="midnightblue" d="M120.22,-214.69C116.85,-205.59 112.93,-195.01 110.24,-187.75"/>
<polygon fill="midnightblue" stroke="midnightblue" points="116.94,-215.92 123.7,-224.08 123.51,-213.49 116.94,-215.92"/>
</g>
<!-- Node4 -->
<g id="node4" class="node">
<title>Node4</title>
<g id="a_node4"><a xlink:href="_line_8h.html" target="_top" xlink:title="Line class interface and implementation.">
<polygon fill="white" stroke="black" points="39,-112.5 39,-131.5 85,-131.5 85,-112.5 39,-112.5"/>
<text text-anchor="middle" x="62" y="-119.5" font-family="Helvetica,sans-Serif" font-size="10.00">Line.h</text>
</a>
</g>
</g>
<!-- Node2&#45;&gt;Node4 -->
<g id="edge8" class="edge">
<title>Node2&#45;&gt;Node4</title>
<path fill="none" stroke="midnightblue" d="M101.93,-218.95C90.63,-211.29 78.23,-200.76 71,-188 60.77,-169.96 60.54,-144.72 61.26,-131.63"/>
<polygon fill="midnightblue" stroke="midnightblue" points="100.31,-222.06 110.63,-224.46 104.06,-216.15 100.31,-222.06"/>
</g>
<!-- Node2&#45;&gt;Node6 -->
<g id="edge9" class="edge">
<title>Node2&#45;&gt;Node6</title>
<path fill="none" stroke="midnightblue" d="M135.06,-214.83C138.21,-206.78 141.43,-197.09 143,-188 154.08,-123.74 133.99,-45.17 126.58,-19.53"/>
<polygon fill="midnightblue" stroke="midnightblue" points="131.74,-213.7 131.11,-224.28 138.19,-216.4 131.74,-213.7"/>
</g>
<!-- Node3&#45;&gt;Node4 -->
<g id="edge3" class="edge">
<title>Node3&#45;&gt;Node4</title>
<path fill="none" stroke="midnightblue" d="M92.95,-160.14C85.11,-150.74 75.67,-139.4 69.29,-131.75"/>
<polygon fill="midnightblue" stroke="midnightblue" points="90.48,-162.64 99.57,-168.08 95.86,-158.16 90.48,-162.64"/>
</g>
<!-- Node3&#45;&gt;Node6 -->
<g id="edge7" class="edge">
<title>Node3&#45;&gt;Node6</title>
<path fill="none" stroke="midnightblue" d="M108.95,-157.93C112.64,-121.92 120.49,-45.23 123.12,-19.57"/>
<polygon fill="midnightblue" stroke="midnightblue" points="105.45,-157.77 107.91,-168.08 112.41,-158.48 105.45,-157.77"/>
</g>
<!-- Node5 -->
<g id="node5" class="node">
<title>Node5</title>
<g id="a_node5"><a xlink:href="_ellipse_8h.html" target="_top" xlink:title="Ellipse class interface and implementation.">
<polygon fill="white" stroke="black" points="0,-56.5 0,-75.5 58,-75.5 58,-56.5 0,-56.5"/>
<text text-anchor="middle" x="29" y="-63.5" font-family="Helvetica,sans-Serif" font-size="10.00">Ellipse.h</text>
</a>
</g>
</g>
<!-- Node4&#45;&gt;Node5 -->
<g id="edge4" class="edge">
<title>Node4&#45;&gt;Node5</title>
<path fill="none" stroke="midnightblue" d="M51.17,-103.27C45.53,-94.05 38.88,-83.17 34.35,-75.75"/>
<polygon fill="midnightblue" stroke="midnightblue" points="48.35,-105.38 56.55,-112.08 54.32,-101.73 48.35,-105.38"/>
</g>
<!-- Node4&#45;&gt;Node6 -->
<g id="edge6" class="edge">
<title>Node4&#45;&gt;Node6</title>
<path fill="none" stroke="midnightblue" d="M71.78,-103.64C85.25,-79.74 108.99,-37.63 119.16,-19.59"/>
<polygon fill="midnightblue" stroke="midnightblue" points="68.73,-101.94 66.87,-112.37 74.82,-105.38 68.73,-101.94"/>
</g>
<!-- Node5&#45;&gt;Node6 -->
<g id="edge5" class="edge">
<title>Node5&#45;&gt;Node6</title>
<path fill="none" stroke="midnightblue" d="M53.32,-51.18C70.8,-41.24 93.83,-28.15 108.77,-19.65"/>
<polygon fill="midnightblue" stroke="midnightblue" points="51.23,-48.34 44.26,-56.32 54.69,-54.43 51.23,-48.34"/>
</g>
</g>
</svg>
