<?xml version="1.0" encoding="UTF-8" standalone="no"?>
<!DOCTYPE svg PUBLIC "-//W3C//DTD SVG 1.1//EN"
 "http://www.w3.org/Graphics/SVG/1.1/DTD/svg11.dtd">
<!-- Generated by graphviz version 2.49.0 (0)
 -->
<!-- Title: Graphical Class Hierarchy Pages: 1 -->
<svg width="415pt" height="28pt"
 viewBox="0.00 0.00 415.00 28.00" xmlns="http://www.w3.org/2000/svg" xmlns:xlink="http://www.w3.org/1999/xlink">
<g id="graph0" class="graph" transform="scale(1 1) rotate(0) translate(4 24)">
<title>Graphical Class Hierarchy</title>
<polygon fill="white" stroke="transparent" points="-4,4 -4,-24 411,-24 411,4 -4,4"/>
<!-- Node0 -->
<g id="node1" class="node">
<title>Node0</title>
<g id="a_node1"><a xlink:href="class_curves_1_1_curve.html" target="_top" xlink:title="Curve hierarchy base class.">
<polygon fill="white" stroke="black" points="0,-0.5 0,-19.5 113,-19.5 113,-0.5 0,-0.5"/>
<text text-anchor="middle" x="56.5" y="-7.5" font-family="Helvetica,sans-Serif" font-size="10.00">Curves::Curve&lt; T &gt;</text>
</a>
</g>
</g>
<!-- Node1 -->
<g id="node2" class="node">
<title>Node1</title>
<g id="a_node2"><a xlink:href="class_curves_1_1_line.html" target="_top" xlink:title="Curve:Line.">
<polygon fill="white" stroke="black" points="149,-0.5 149,-19.5 254,-19.5 254,-0.5 149,-0.5"/>
<text text-anchor="middle" x="201.5" y="-7.5" font-family="Helvetica,sans-Serif" font-size="10.00">Curves::Line&lt; T &gt;</text>
</a>
</g>
</g>
<!-- Node0&#45;&gt;Node1 -->
<g id="edge1" class="edge">
<title>Node0&#45;&gt;Node1</title>
<path fill="none" stroke="midnightblue" d="M123.23,-10C131.85,-10 140.59,-10 148.93,-10"/>
<polygon fill="midnightblue" stroke="midnightblue" points="123.2,-6.5 113.2,-10 123.2,-13.5 123.2,-6.5"/>
</g>
<!-- Node2 -->
<g id="node3" class="node">
<title>Node2</title>
<g id="a_node3"><a xlink:href="class_curves_1_1_ellipse.html" target="_top" xlink:title="Curve:Ellipse.">
<polygon fill="white" stroke="black" points="290,-0.5 290,-19.5 407,-19.5 407,-0.5 290,-0.5"/>
<text text-anchor="middle" x="348.5" y="-7.5" font-family="Helvetica,sans-Serif" font-size="10.00">Curves::Ellipse&lt; T &gt;</text>
</a>
</g>
</g>
<!-- Node1&#45;&gt;Node2 -->
<g id="edge2" class="edge">
<title>Node1&#45;&gt;Node2</title>
<path fill="none" stroke="midnightblue" d="M264.22,-10C272.68,-10 281.34,-10 289.72,-10"/>
<polygon fill="midnightblue" stroke="midnightblue" points="264.03,-6.5 254.03,-10 264.03,-13.5 264.03,-6.5"/>
</g>
</g>
</svg>
