<?xml version="1.0" encoding="UTF-8" standalone="no"?>
<!DOCTYPE svg PUBLIC "-//W3C//DTD SVG 1.1//EN"
 "http://www.w3.org/Graphics/SVG/1.1/DTD/svg11.dtd">
<!-- Generated by graphviz version 2.49.0 (0)
 -->
<!-- Title: main.cpp Pages: 1 -->
<svg width="611pt" height="308pt"
 viewBox="0.00 0.00 610.50 308.00" xmlns="http://www.w3.org/2000/svg" xmlns:xlink="http://www.w3.org/1999/xlink">
<g id="graph0" class="graph" transform="scale(1 1) rotate(0) translate(4 304)">
<title>main.cpp</title>
<polygon fill="white" stroke="transparent" points="-4,4 -4,-304 606.5,-304 606.5,4 -4,4"/>
<!-- Node1 -->
<g id="node1" class="node">
<title>Node1</title>
<g id="a_node1"><a xlink:title=" ">
<polygon fill="#bfbfbf" stroke="black" points="189,-280.5 189,-299.5 251,-299.5 251,-280.5 189,-280.5"/>
<text text-anchor="middle" x="220" y="-287.5" font-family="Helvetica,sans-Serif" font-size="10.00">main.cpp</text>
</a>
</g>
</g>
<!-- Node2 -->
<g id="node2" class="node">
<title>Node2</title>
<g id="a_node2"><a xlink:title=" ">
<polygon fill="white" stroke="#bfbfbf" points="0,-0.5 0,-19.5 60,-19.5 60,-0.5 0,-0.5"/>
<text text-anchor="middle" x="30" y="-7.5" font-family="Helvetica,sans-Serif" font-size="10.00">iostream</text>
</a>
</g>
</g>
<!-- Node1&#45;&gt;Node2 -->
<g id="edge1" class="edge">
<title>Node1&#45;&gt;Node2</title>
<path fill="none" stroke="midnightblue" d="M188.63,-285.28C134.66,-276.93 30,-251.42 30,-179 30,-179 30,-179 30,-121 30,-88.95 30,-51.64 30,-29.75"/>
<polygon fill="midnightblue" stroke="midnightblue" points="33.5,-29.56 30,-19.56 26.5,-29.56 33.5,-29.56"/>
</g>
<!-- Node3 -->
<g id="node3" class="node">
<title>Node3</title>
<g id="a_node3"><a xlink:href="consts_8h.html" target="_top" xlink:title="Constants.">
<polygon fill="white" stroke="black" points="78.5,-0.5 78.5,-19.5 135.5,-19.5 135.5,-0.5 78.5,-0.5"/>
<text text-anchor="middle" x="107" y="-7.5" font-family="Helvetica,sans-Serif" font-size="10.00">consts.h</text>
</a>
</g>
</g>
<!-- Node1&#45;&gt;Node3 -->
<g id="edge2" class="edge">
<title>Node1&#45;&gt;Node3</title>
<path fill="none" stroke="midnightblue" d="M188.87,-281.5C144.4,-268.7 68,-238.12 68,-179 68,-179 68,-179 68,-121 68,-86.72 85.04,-49.7 96.59,-28.54"/>
<polygon fill="midnightblue" stroke="midnightblue" points="99.69,-30.17 101.58,-19.75 93.6,-26.72 99.69,-30.17"/>
</g>
<!-- Node4 -->
<g id="node4" class="node">
<title>Node4</title>
<g id="a_node4"><a xlink:href="_point_8h.html" target="_top" xlink:title="Point class interface and implementation.">
<polygon fill="white" stroke="black" points="150,-56.5 150,-75.5 200,-75.5 200,-56.5 150,-56.5"/>
<text text-anchor="middle" x="175" y="-63.5" font-family="Helvetica,sans-Serif" font-size="10.00">Point.h</text>
</a>
</g>
</g>
<!-- Node1&#45;&gt;Node4 -->
<g id="edge3" class="edge">
<title>Node1&#45;&gt;Node4</title>
<path fill="none" stroke="midnightblue" d="M188.79,-282.34C168.2,-276.15 142.77,-264.66 130,-244 97.7,-191.73 140.08,-117.18 162.59,-84.02"/>
<polygon fill="midnightblue" stroke="midnightblue" points="165.47,-86.02 168.34,-75.82 159.73,-82 165.47,-86.02"/>
</g>
<!-- Node6 -->
<g id="node6" class="node">
<title>Node6</title>
<g id="a_node6"><a xlink:title=" ">
<polygon fill="white" stroke="#bfbfbf" points="154,-0.5 154,-19.5 196,-19.5 196,-0.5 154,-0.5"/>
<text text-anchor="middle" x="175" y="-7.5" font-family="Helvetica,sans-Serif" font-size="10.00">array</text>
</a>
</g>
</g>
<!-- Node1&#45;&gt;Node6 -->
<g id="edge22" class="edge">
<title>Node1&#45;&gt;Node6</title>
<path fill="none" stroke="midnightblue" d="M215.52,-280.39C201.1,-252.1 155.91,-159.08 141,-76 139.43,-67.25 138.17,-64.43 141,-56 144.6,-45.25 151.9,-35.02 158.82,-27.04"/>
<polygon fill="midnightblue" stroke="midnightblue" points="161.48,-29.32 165.71,-19.61 156.35,-24.56 161.48,-29.32"/>
</g>
<!-- Node8 -->
<g id="node8" class="node">
<title>Node8</title>
<g id="a_node8"><a xlink:href="_curve_8h.html" target="_top" xlink:title="Curve class interface and implementation. Curve class is base class.">
<polygon fill="white" stroke="black" points="210,-112.5 210,-131.5 264,-131.5 264,-112.5 210,-112.5"/>
<text text-anchor="middle" x="237" y="-119.5" font-family="Helvetica,sans-Serif" font-size="10.00">Curve.h</text>
</a>
</g>
</g>
<!-- Node1&#45;&gt;Node8 -->
<g id="edge9" class="edge">
<title>Node1&#45;&gt;Node8</title>
<path fill="none" stroke="midnightblue" d="M219.71,-280.43C219.19,-260.55 218.65,-209.78 225,-168 226.35,-159.1 228.8,-149.42 231.13,-141.33"/>
<polygon fill="midnightblue" stroke="midnightblue" points="234.56,-142.09 234.13,-131.51 227.87,-140.05 234.56,-142.09"/>
</g>
<!-- Node9 -->
<g id="node9" class="node">
<title>Node9</title>
<g id="a_node9"><a xlink:href="_line_8h.html" target="_top" xlink:title="Line class interface and implementation.">
<polygon fill="white" stroke="black" points="234,-168.5 234,-187.5 280,-187.5 280,-168.5 234,-168.5"/>
<text text-anchor="middle" x="257" y="-175.5" font-family="Helvetica,sans-Serif" font-size="10.00">Line.h</text>
</a>
</g>
</g>
<!-- Node1&#45;&gt;Node9 -->
<g id="edge13" class="edge">
<title>Node1&#45;&gt;Node9</title>
<path fill="none" stroke="midnightblue" d="M222.31,-280.08C225.65,-267.48 232.17,-243.78 239,-224 242.13,-214.94 246.04,-205.03 249.41,-196.83"/>
<polygon fill="midnightblue" stroke="midnightblue" points="252.67,-198.11 253.3,-187.53 246.21,-195.41 252.67,-198.11"/>
</g>
<!-- Node10 -->
<g id="node10" class="node">
<title>Node10</title>
<g id="a_node10"><a xlink:href="_ellipse_8h.html" target="_top" xlink:title="Ellipse class interface and implementation.">
<polygon fill="white" stroke="black" points="248,-224.5 248,-243.5 306,-243.5 306,-224.5 248,-224.5"/>
<text text-anchor="middle" x="277" y="-231.5" font-family="Helvetica,sans-Serif" font-size="10.00">Ellipse.h</text>
</a>
</g>
</g>
<!-- Node1&#45;&gt;Node10 -->
<g id="edge18" class="edge">
<title>Node1&#45;&gt;Node10</title>
<path fill="none" stroke="midnightblue" d="M229.16,-280.32C237.5,-272.42 250.03,-260.55 260.18,-250.94"/>
<polygon fill="midnightblue" stroke="midnightblue" points="262.82,-253.25 267.68,-243.83 258.01,-248.17 262.82,-253.25"/>
</g>
<!-- Node11 -->
<g id="node11" class="node">
<title>Node11</title>
<g id="a_node11"><a xlink:title=" ">
<polygon fill="white" stroke="#bfbfbf" points="324.5,-224.5 324.5,-243.5 371.5,-243.5 371.5,-224.5 324.5,-224.5"/>
<text text-anchor="middle" x="348" y="-231.5" font-family="Helvetica,sans-Serif" font-size="10.00">vector</text>
</a>
</g>
</g>
<!-- Node1&#45;&gt;Node11 -->
<g id="edge23" class="edge">
<title>Node1&#45;&gt;Node11</title>
<path fill="none" stroke="midnightblue" d="M240.28,-280.44C261.35,-271.56 294.52,-257.56 318.49,-247.45"/>
<polygon fill="midnightblue" stroke="midnightblue" points="319.96,-250.63 327.81,-243.52 317.24,-244.18 319.96,-250.63"/>
</g>
<!-- Node12 -->
<g id="node12" class="node">
<title>Node12</title>
<g id="a_node12"><a xlink:title=" ">
<polygon fill="white" stroke="#bfbfbf" points="390,-224.5 390,-243.5 448,-243.5 448,-224.5 390,-224.5"/>
<text text-anchor="middle" x="419" y="-231.5" font-family="Helvetica,sans-Serif" font-size="10.00">memory</text>
</a>
</g>
</g>
<!-- Node1&#45;&gt;Node12 -->
<g id="edge24" class="edge">
<title>Node1&#45;&gt;Node12</title>
<path fill="none" stroke="midnightblue" d="M251.09,-280.56C285.77,-271.15 341.92,-255.92 379.63,-245.68"/>
<polygon fill="midnightblue" stroke="midnightblue" points="381.01,-248.94 389.74,-242.94 379.18,-242.18 381.01,-248.94"/>
</g>
<!-- Node13 -->
<g id="node13" class="node">
<title>Node13</title>
<g id="a_node13"><a xlink:title=" ">
<polygon fill="white" stroke="#bfbfbf" points="466.5,-224.5 466.5,-243.5 531.5,-243.5 531.5,-224.5 466.5,-224.5"/>
<text text-anchor="middle" x="499" y="-231.5" font-family="Helvetica,sans-Serif" font-size="10.00">stdexcept</text>
</a>
</g>
</g>
<!-- Node1&#45;&gt;Node13 -->
<g id="edge25" class="edge">
<title>Node1&#45;&gt;Node13</title>
<path fill="none" stroke="midnightblue" d="M251.1,-283.33C294.58,-275.36 376.26,-260.2 456.21,-244.12"/>
<polygon fill="midnightblue" stroke="midnightblue" points="457.35,-247.46 466.46,-242.05 455.96,-240.6 457.35,-247.46"/>
</g>
<!-- Node14 -->
<g id="node14" class="node">
<title>Node14</title>
<g id="a_node14"><a xlink:title=" ">
<polygon fill="white" stroke="#bfbfbf" points="549.5,-224.5 549.5,-243.5 602.5,-243.5 602.5,-224.5 549.5,-224.5"/>
<text text-anchor="middle" x="576" y="-231.5" font-family="Helvetica,sans-Serif" font-size="10.00">stdlib.h</text>
</a>
</g>
</g>
<!-- Node1&#45;&gt;Node14 -->
<g id="edge26" class="edge">
<title>Node1&#45;&gt;Node14</title>
<path fill="none" stroke="midnightblue" d="M251.18,-285.81C307.08,-279.83 428.19,-265.74 539.29,-244.16"/>
<polygon fill="midnightblue" stroke="midnightblue" points="540.18,-247.56 549.32,-242.19 538.83,-240.69 540.18,-247.56"/>
</g>
<!-- Node4&#45;&gt;Node2 -->
<g id="edge4" class="edge">
<title>Node4&#45;&gt;Node2</title>
<path fill="none" stroke="midnightblue" d="M152.02,-56.44C127.84,-47.44 89.58,-33.19 62.35,-23.05"/>
<polygon fill="midnightblue" stroke="midnightblue" points="63.46,-19.73 52.87,-19.52 61.02,-26.29 63.46,-19.73"/>
</g>
<!-- Node4&#45;&gt;Node3 -->
<g id="edge5" class="edge">
<title>Node4&#45;&gt;Node3</title>
<path fill="none" stroke="midnightblue" d="M164.07,-56.32C153.83,-48.18 138.28,-35.84 126,-26.09"/>
<polygon fill="midnightblue" stroke="midnightblue" points="128.13,-23.31 118.12,-19.83 123.78,-28.79 128.13,-23.31"/>
</g>
<!-- Node5 -->
<g id="node5" class="node">
<title>Node5</title>
<g id="a_node5"><a xlink:title=" ">
<polygon fill="white" stroke="#bfbfbf" points="235,-0.5 235,-19.5 279,-19.5 279,-0.5 235,-0.5"/>
<text text-anchor="middle" x="257" y="-7.5" font-family="Helvetica,sans-Serif" font-size="10.00">string</text>
</a>
</g>
</g>
<!-- Node4&#45;&gt;Node5 -->
<g id="edge6" class="edge">
<title>Node4&#45;&gt;Node5</title>
<path fill="none" stroke="midnightblue" d="M188.17,-56.32C200.85,-47.98 220.23,-35.21 235.21,-25.35"/>
<polygon fill="midnightblue" stroke="midnightblue" points="237.43,-28.08 243.86,-19.65 233.58,-22.23 237.43,-28.08"/>
</g>
<!-- Node4&#45;&gt;Node6 -->
<g id="edge7" class="edge">
<title>Node4&#45;&gt;Node6</title>
<path fill="none" stroke="midnightblue" d="M175,-56.08C175,-49.01 175,-38.86 175,-29.99"/>
<polygon fill="midnightblue" stroke="midnightblue" points="178.5,-29.75 175,-19.75 171.5,-29.75 178.5,-29.75"/>
</g>
<!-- Node7 -->
<g id="node7" class="node">
<title>Node7</title>
<g id="a_node7"><a xlink:title=" ">
<polygon fill="white" stroke="#bfbfbf" points="307.5,-0.5 307.5,-19.5 354.5,-19.5 354.5,-0.5 307.5,-0.5"/>
<text text-anchor="middle" x="331" y="-7.5" font-family="Helvetica,sans-Serif" font-size="10.00">cmath</text>
</a>
</g>
</g>
<!-- Node4&#45;&gt;Node7 -->
<g id="edge8" class="edge">
<title>Node4&#45;&gt;Node7</title>
<path fill="none" stroke="midnightblue" d="M199.72,-56.44C226.16,-47.29 268.24,-32.73 297.61,-22.56"/>
<polygon fill="midnightblue" stroke="midnightblue" points="299.11,-25.74 307.42,-19.16 296.82,-19.13 299.11,-25.74"/>
</g>
<!-- Node8&#45;&gt;Node4 -->
<g id="edge10" class="edge">
<title>Node8&#45;&gt;Node4</title>
<path fill="none" stroke="midnightblue" d="M227.04,-112.32C217.87,-104.34 204.06,-92.31 192.97,-82.65"/>
<polygon fill="midnightblue" stroke="midnightblue" points="194.98,-79.76 185.14,-75.83 190.38,-85.04 194.98,-79.76"/>
</g>
<!-- Node8&#45;&gt;Node5 -->
<g id="edge12" class="edge">
<title>Node8&#45;&gt;Node5</title>
<path fill="none" stroke="midnightblue" d="M238.57,-112.37C241.8,-94.62 249.24,-53.67 253.62,-29.6"/>
<polygon fill="midnightblue" stroke="midnightblue" points="257.09,-30.06 255.44,-19.59 250.21,-28.8 257.09,-30.06"/>
</g>
<!-- Node8&#45;&gt;Node7 -->
<g id="edge11" class="edge">
<title>Node8&#45;&gt;Node7</title>
<path fill="none" stroke="midnightblue" d="M244.38,-112.37C260.03,-94.05 296.78,-51.05 317.02,-27.36"/>
<polygon fill="midnightblue" stroke="midnightblue" points="319.82,-29.47 323.66,-19.59 314.5,-24.92 319.82,-29.47"/>
</g>
<!-- Node9&#45;&gt;Node4 -->
<g id="edge15" class="edge">
<title>Node9&#45;&gt;Node4</title>
<path fill="none" stroke="midnightblue" d="M242.37,-168.3C229.91,-160.24 212.28,-147.24 201,-132 190.62,-117.97 183.7,-99.23 179.63,-85.47"/>
<polygon fill="midnightblue" stroke="midnightblue" points="182.97,-84.42 176.96,-75.7 176.22,-86.27 182.97,-84.42"/>
</g>
<!-- Node9&#45;&gt;Node5 -->
<g id="edge17" class="edge">
<title>Node9&#45;&gt;Node5</title>
<path fill="none" stroke="midnightblue" d="M261.11,-168.28C265.06,-159.38 270.74,-145.07 273,-132 279.25,-95.77 269.68,-53.06 262.86,-29.3"/>
<polygon fill="midnightblue" stroke="midnightblue" points="266.15,-28.1 259.9,-19.54 259.45,-30.13 266.15,-28.1"/>
</g>
<!-- Node9&#45;&gt;Node7 -->
<g id="edge16" class="edge">
<title>Node9&#45;&gt;Node7</title>
<path fill="none" stroke="midnightblue" d="M263.63,-168.42C270.19,-159.63 280.22,-145.41 287,-132 304.68,-97.06 318.76,-53.28 325.9,-29.12"/>
<polygon fill="midnightblue" stroke="midnightblue" points="329.26,-30.08 328.67,-19.5 322.54,-28.14 329.26,-30.08"/>
</g>
<!-- Node9&#45;&gt;Node8 -->
<g id="edge14" class="edge">
<title>Node9&#45;&gt;Node8</title>
<path fill="none" stroke="midnightblue" d="M253.7,-168.08C251.02,-160.85 247.15,-150.41 243.81,-141.4"/>
<polygon fill="midnightblue" stroke="midnightblue" points="247,-139.91 240.24,-131.75 240.43,-142.34 247,-139.91"/>
</g>
<!-- Node10&#45;&gt;Node5 -->
<g id="edge21" class="edge">
<title>Node10&#45;&gt;Node5</title>
<path fill="none" stroke="midnightblue" d="M280.09,-224.17C283.05,-215.2 287.32,-200.83 289,-188 293.73,-151.94 305.83,-124.26 285,-56 281.92,-45.9 275.97,-35.81 270.34,-27.75"/>
<polygon fill="midnightblue" stroke="midnightblue" points="273.08,-25.56 264.3,-19.62 267.46,-29.73 273.08,-25.56"/>
</g>
<!-- Node10&#45;&gt;Node7 -->
<g id="edge20" class="edge">
<title>Node10&#45;&gt;Node7</title>
<path fill="none" stroke="midnightblue" d="M283.7,-224.22C289.98,-215.51 299.12,-201.54 304,-188 323.89,-132.8 329.13,-62.78 330.51,-29.8"/>
<polygon fill="midnightblue" stroke="midnightblue" points="334.01,-29.88 330.85,-19.76 327.01,-29.64 334.01,-29.88"/>
</g>
<!-- Node10&#45;&gt;Node9 -->
<g id="edge19" class="edge">
<title>Node10&#45;&gt;Node9</title>
<path fill="none" stroke="midnightblue" d="M273.7,-224.08C271.02,-216.85 267.15,-206.41 263.81,-197.4"/>
<polygon fill="midnightblue" stroke="midnightblue" points="267,-195.91 260.24,-187.75 260.43,-198.34 267,-195.91"/>
</g>
</g>
</svg>
