<?xml version="1.0" encoding="UTF-8" standalone="no"?>
<!DOCTYPE svg PUBLIC "-//W3C//DTD SVG 1.1//EN"
 "http://www.w3.org/Graphics/SVG/1.1/DTD/svg11.dtd">
<!-- Generated by graphviz version 2.49.0 (0)
 -->
<!-- Title: main.cpp Pages: 1 -->
<svg width="484pt" height="308pt"
 viewBox="0.00 0.00 484.00 308.00" xmlns="http://www.w3.org/2000/svg" xmlns:xlink="http://www.w3.org/1999/xlink">
<g id="graph0" class="graph" transform="scale(1 1) rotate(0) translate(4 304)">
<title>main.cpp</title>
<polygon fill="white" stroke="transparent" points="-4,4 -4,-304 480,-304 480,4 -4,4"/>
<!-- Node1 -->
<g id="node1" class="node">
<title>Node1</title>
<g id="a_node1"><a xlink:title=" ">
<polygon fill="#bfbfbf" stroke="black" points="179,-280.5 179,-299.5 241,-299.5 241,-280.5 179,-280.5"/>
<text text-anchor="middle" x="210" y="-287.5" font-family="Helvetica,sans-Serif" font-size="10.00">main.cpp</text>
</a>
</g>
</g>
<!-- Node2 -->
<g id="node2" class="node">
<title>Node2</title>
<g id="a_node2"><a xlink:title=" ">
<polygon fill="white" stroke="#bfbfbf" points="0,-0.5 0,-19.5 60,-19.5 60,-0.5 0,-0.5"/>
<text text-anchor="middle" x="30" y="-7.5" font-family="Helvetica,sans-Serif" font-size="10.00">iostream</text>
</a>
</g>
</g>
<!-- Node1&#45;&gt;Node2 -->
<g id="edge1" class="edge">
<title>Node1&#45;&gt;Node2</title>
<path fill="none" stroke="midnightblue" d="M178.78,-283.07C130.69,-271.92 44,-242.96 44,-179 44,-179 44,-179 44,-121 44,-88.54 37.93,-51.12 33.78,-29.36"/>
<polygon fill="midnightblue" stroke="midnightblue" points="37.21,-28.64 31.83,-19.51 30.34,-30 37.21,-28.64"/>
</g>
<!-- Node3 -->
<g id="node3" class="node">
<title>Node3</title>
<g id="a_node3"><a xlink:href="consts_8h.html" target="_top" xlink:title="Constants.">
<polygon fill="white" stroke="black" points="78.5,-0.5 78.5,-19.5 135.5,-19.5 135.5,-0.5 78.5,-0.5"/>
<text text-anchor="middle" x="107" y="-7.5" font-family="Helvetica,sans-Serif" font-size="10.00">consts.h</text>
</a>
</g>
</g>
<!-- Node1&#45;&gt;Node3 -->
<g id="edge2" class="edge">
<title>Node1&#45;&gt;Node3</title>
<path fill="none" stroke="midnightblue" d="M189.36,-280.42C156.5,-265.23 96,-230.29 96,-179 96,-179 96,-179 96,-121 96,-88.79 100.73,-51.53 103.98,-29.69"/>
<polygon fill="midnightblue" stroke="midnightblue" points="107.49,-29.95 105.56,-19.53 100.57,-28.87 107.49,-29.95"/>
</g>
<!-- Node4 -->
<g id="node4" class="node">
<title>Node4</title>
<g id="a_node4"><a xlink:href="_point_8h.html" target="_top" xlink:title="Point class interface and implementation.">
<polygon fill="white" stroke="black" points="173,-56.5 173,-75.5 223,-75.5 223,-56.5 173,-56.5"/>
<text text-anchor="middle" x="198" y="-63.5" font-family="Helvetica,sans-Serif" font-size="10.00">Point.h</text>
</a>
</g>
</g>
<!-- Node1&#45;&gt;Node4 -->
<g id="edge3" class="edge">
<title>Node1&#45;&gt;Node4</title>
<path fill="none" stroke="midnightblue" d="M209.53,-280.3C207.76,-247.63 201.51,-131.87 199.02,-85.96"/>
<polygon fill="midnightblue" stroke="midnightblue" points="202.51,-85.68 198.48,-75.88 195.53,-86.06 202.51,-85.68"/>
</g>
<!-- Node7 -->
<g id="node7" class="node">
<title>Node7</title>
<g id="a_node7"><a xlink:title=" ">
<polygon fill="white" stroke="#bfbfbf" points="154,-0.5 154,-19.5 196,-19.5 196,-0.5 154,-0.5"/>
<text text-anchor="middle" x="175" y="-7.5" font-family="Helvetica,sans-Serif" font-size="10.00">array</text>
</a>
</g>
</g>
<!-- Node1&#45;&gt;Node7 -->
<g id="edge22" class="edge">
<title>Node1&#45;&gt;Node7</title>
<path fill="none" stroke="midnightblue" d="M198.46,-280.43C177.2,-263.57 134,-223.8 134,-179 134,-179 134,-179 134,-121 134,-86.52 151.91,-49.56 164.06,-28.47"/>
<polygon fill="midnightblue" stroke="midnightblue" points="167.16,-30.09 169.3,-19.71 161.16,-26.49 167.16,-30.09"/>
</g>
<!-- Node8 -->
<g id="node8" class="node">
<title>Node8</title>
<g id="a_node8"><a xlink:href="_curve_8h.html" target="_top" xlink:title="Curve class interface and implementation. Curve class is base class.">
<polygon fill="white" stroke="black" points="238,-112.5 238,-131.5 292,-131.5 292,-112.5 238,-112.5"/>
<text text-anchor="middle" x="265" y="-119.5" font-family="Helvetica,sans-Serif" font-size="10.00">Curve.h</text>
</a>
</g>
</g>
<!-- Node1&#45;&gt;Node8 -->
<g id="edge9" class="edge">
<title>Node1&#45;&gt;Node8</title>
<path fill="none" stroke="midnightblue" d="M212.96,-280.08C221.65,-253.83 247.26,-176.55 259,-141.12"/>
<polygon fill="midnightblue" stroke="midnightblue" points="262.34,-142.16 262.16,-131.57 255.69,-139.96 262.34,-142.16"/>
</g>
<!-- Node10 -->
<g id="node10" class="node">
<title>Node10</title>
<g id="a_node10"><a xlink:href="_line_8h.html" target="_top" xlink:title="Line class interface and implementation.">
<polygon fill="white" stroke="black" points="262,-168.5 262,-187.5 308,-187.5 308,-168.5 262,-168.5"/>
<text text-anchor="middle" x="285" y="-175.5" font-family="Helvetica,sans-Serif" font-size="10.00">Line.h</text>
</a>
</g>
</g>
<!-- Node1&#45;&gt;Node10 -->
<g id="edge13" class="edge">
<title>Node1&#45;&gt;Node10</title>
<path fill="none" stroke="midnightblue" d="M215.89,-280.37C228.26,-262.22 257.18,-219.8 273.42,-195.99"/>
<polygon fill="midnightblue" stroke="midnightblue" points="276.4,-197.83 279.14,-187.59 270.62,-193.88 276.4,-197.83"/>
</g>
<!-- Node11 -->
<g id="node11" class="node">
<title>Node11</title>
<g id="a_node11"><a xlink:href="_ellipse_8h.html" target="_top" xlink:title="Ellipse class interface and implementation.">
<polygon fill="white" stroke="black" points="276,-224.5 276,-243.5 334,-243.5 334,-224.5 276,-224.5"/>
<text text-anchor="middle" x="305" y="-231.5" font-family="Helvetica,sans-Serif" font-size="10.00">Ellipse.h</text>
</a>
</g>
</g>
<!-- Node1&#45;&gt;Node11 -->
<g id="edge18" class="edge">
<title>Node1&#45;&gt;Node11</title>
<path fill="none" stroke="midnightblue" d="M225.26,-280.32C240.22,-271.82 263.25,-258.73 280.73,-248.8"/>
<polygon fill="midnightblue" stroke="midnightblue" points="282.81,-251.64 289.77,-243.65 279.35,-245.55 282.81,-251.64"/>
</g>
<!-- Node12 -->
<g id="node12" class="node">
<title>Node12</title>
<g id="a_node12"><a xlink:title=" ">
<polygon fill="white" stroke="#bfbfbf" points="352.5,-224.5 352.5,-243.5 399.5,-243.5 399.5,-224.5 352.5,-224.5"/>
<text text-anchor="middle" x="376" y="-231.5" font-family="Helvetica,sans-Serif" font-size="10.00">vector</text>
</a>
</g>
</g>
<!-- Node1&#45;&gt;Node12 -->
<g id="edge23" class="edge">
<title>Node1&#45;&gt;Node12</title>
<path fill="none" stroke="midnightblue" d="M236.3,-280.44C265.09,-271.08 311.32,-256.04 342.64,-245.85"/>
<polygon fill="midnightblue" stroke="midnightblue" points="343.81,-249.15 352.24,-242.73 341.65,-242.49 343.81,-249.15"/>
</g>
<!-- Node13 -->
<g id="node13" class="node">
<title>Node13</title>
<g id="a_node13"><a xlink:title=" ">
<polygon fill="white" stroke="#bfbfbf" points="418,-224.5 418,-243.5 476,-243.5 476,-224.5 418,-224.5"/>
<text text-anchor="middle" x="447" y="-231.5" font-family="Helvetica,sans-Serif" font-size="10.00">memory</text>
</a>
</g>
</g>
<!-- Node1&#45;&gt;Node13 -->
<g id="edge24" class="edge">
<title>Node1&#45;&gt;Node13</title>
<path fill="none" stroke="midnightblue" d="M241.04,-282.08C278.3,-273.76 342.94,-259.25 407.95,-244.23"/>
<polygon fill="midnightblue" stroke="midnightblue" points="409.01,-247.57 417.96,-241.91 407.43,-240.75 409.01,-247.57"/>
</g>
<!-- Node4&#45;&gt;Node2 -->
<g id="edge4" class="edge">
<title>Node4&#45;&gt;Node2</title>
<path fill="none" stroke="midnightblue" d="M172.85,-56.92C144.68,-47.86 98.78,-33.11 66.63,-22.77"/>
<polygon fill="midnightblue" stroke="midnightblue" points="67.3,-19.31 56.71,-19.59 65.16,-25.98 67.3,-19.31"/>
</g>
<!-- Node4&#45;&gt;Node3 -->
<g id="edge5" class="edge">
<title>Node4&#45;&gt;Node3</title>
<path fill="none" stroke="midnightblue" d="M183.38,-56.32C169.05,-47.82 146.99,-34.73 130.25,-24.8"/>
<polygon fill="midnightblue" stroke="midnightblue" points="131.97,-21.75 121.58,-19.65 128.4,-27.77 131.97,-21.75"/>
</g>
<!-- Node5 -->
<g id="node5" class="node">
<title>Node5</title>
<g id="a_node5"><a xlink:title=" ">
<polygon fill="white" stroke="#bfbfbf" points="214.5,-0.5 214.5,-19.5 279.5,-19.5 279.5,-0.5 214.5,-0.5"/>
<text text-anchor="middle" x="247" y="-7.5" font-family="Helvetica,sans-Serif" font-size="10.00">stdexcept</text>
</a>
</g>
</g>
<!-- Node4&#45;&gt;Node5 -->
<g id="edge6" class="edge">
<title>Node4&#45;&gt;Node5</title>
<path fill="none" stroke="midnightblue" d="M206.09,-56.08C213.16,-48.3 223.59,-36.8 232.15,-27.37"/>
<polygon fill="midnightblue" stroke="midnightblue" points="234.93,-29.51 239.06,-19.75 229.75,-24.8 234.93,-29.51"/>
</g>
<!-- Node6 -->
<g id="node6" class="node">
<title>Node6</title>
<g id="a_node6"><a xlink:title=" ">
<polygon fill="white" stroke="#bfbfbf" points="298,-0.5 298,-19.5 342,-19.5 342,-0.5 298,-0.5"/>
<text text-anchor="middle" x="320" y="-7.5" font-family="Helvetica,sans-Serif" font-size="10.00">string</text>
</a>
</g>
</g>
<!-- Node4&#45;&gt;Node6 -->
<g id="edge7" class="edge">
<title>Node4&#45;&gt;Node6</title>
<path fill="none" stroke="midnightblue" d="M217.33,-56.44C237.32,-47.6 268.74,-33.69 291.56,-23.59"/>
<polygon fill="midnightblue" stroke="midnightblue" points="293.03,-26.76 300.76,-19.52 290.2,-20.36 293.03,-26.76"/>
</g>
<!-- Node4&#45;&gt;Node7 -->
<g id="edge8" class="edge">
<title>Node4&#45;&gt;Node7</title>
<path fill="none" stroke="midnightblue" d="M194.2,-56.08C191.09,-48.77 186.58,-38.18 182.71,-29.1"/>
<polygon fill="midnightblue" stroke="midnightblue" points="185.87,-27.58 178.73,-19.75 179.43,-30.32 185.87,-27.58"/>
</g>
<!-- Node8&#45;&gt;Node4 -->
<g id="edge10" class="edge">
<title>Node8&#45;&gt;Node4</title>
<path fill="none" stroke="midnightblue" d="M254.24,-112.32C244.23,-104.26 229.11,-92.08 217.07,-82.37"/>
<polygon fill="midnightblue" stroke="midnightblue" points="218.94,-79.38 208.96,-75.83 214.55,-84.83 218.94,-79.38"/>
</g>
<!-- Node8&#45;&gt;Node6 -->
<g id="edge12" class="edge">
<title>Node8&#45;&gt;Node6</title>
<path fill="none" stroke="midnightblue" d="M269.32,-112.37C278.31,-94.38 299.22,-52.55 311.19,-28.63"/>
<polygon fill="midnightblue" stroke="midnightblue" points="314.36,-30.1 315.7,-19.59 308.1,-26.97 314.36,-30.1"/>
</g>
<!-- Node9 -->
<g id="node9" class="node">
<title>Node9</title>
<g id="a_node9"><a xlink:title=" ">
<polygon fill="white" stroke="#bfbfbf" points="348.5,-56.5 348.5,-75.5 395.5,-75.5 395.5,-56.5 348.5,-56.5"/>
<text text-anchor="middle" x="372" y="-63.5" font-family="Helvetica,sans-Serif" font-size="10.00">cmath</text>
</a>
</g>
</g>
<!-- Node8&#45;&gt;Node9 -->
<g id="edge11" class="edge">
<title>Node8&#45;&gt;Node9</title>
<path fill="none" stroke="midnightblue" d="M282.19,-112.32C299.35,-103.66 325.95,-90.24 345.75,-80.25"/>
<polygon fill="midnightblue" stroke="midnightblue" points="347.5,-83.28 354.85,-75.65 344.35,-77.04 347.5,-83.28"/>
</g>
<!-- Node10&#45;&gt;Node4 -->
<g id="edge15" class="edge">
<title>Node10&#45;&gt;Node4</title>
<path fill="none" stroke="midnightblue" d="M271.09,-168.43C258.76,-160.29 240.92,-147.06 229,-132 217.86,-117.92 209.46,-99.18 204.24,-85.44"/>
<polygon fill="midnightblue" stroke="midnightblue" points="207.41,-83.91 200.73,-75.68 200.82,-86.28 207.41,-83.91"/>
</g>
<!-- Node10&#45;&gt;Node6 -->
<g id="edge17" class="edge">
<title>Node10&#45;&gt;Node6</title>
<path fill="none" stroke="midnightblue" d="M288.68,-168.19C292.3,-159.22 297.73,-144.86 301,-132 310.04,-96.4 315.53,-53.75 318.15,-29.78"/>
<polygon fill="midnightblue" stroke="midnightblue" points="321.65,-29.93 319.2,-19.62 314.69,-29.2 321.65,-29.93"/>
</g>
<!-- Node10&#45;&gt;Node8 -->
<g id="edge14" class="edge">
<title>Node10&#45;&gt;Node8</title>
<path fill="none" stroke="midnightblue" d="M281.7,-168.08C279.02,-160.85 275.15,-150.41 271.81,-141.4"/>
<polygon fill="midnightblue" stroke="midnightblue" points="275,-139.91 268.24,-131.75 268.43,-142.34 275,-139.91"/>
</g>
<!-- Node10&#45;&gt;Node9 -->
<g id="edge16" class="edge">
<title>Node10&#45;&gt;Node9</title>
<path fill="none" stroke="midnightblue" d="M296.41,-168.19C306.97,-159.67 322.69,-146.03 334,-132 345.9,-117.24 356.51,-98.34 363.48,-84.73"/>
<polygon fill="midnightblue" stroke="midnightblue" points="366.74,-86.02 368.05,-75.51 360.47,-82.91 366.74,-86.02"/>
</g>
<!-- Node11&#45;&gt;Node6 -->
<g id="edge21" class="edge">
<title>Node11&#45;&gt;Node6</title>
<path fill="none" stroke="midnightblue" d="M314.47,-224.33C323.55,-215.7 337.27,-201.8 347,-188 379.31,-142.19 391.73,-130.46 405,-76 407.1,-67.36 409.58,-63.62 405,-56 393.49,-36.88 370.81,-25.45 351.78,-18.9"/>
<polygon fill="midnightblue" stroke="midnightblue" points="352.83,-15.56 342.24,-15.91 350.73,-22.24 352.83,-15.56"/>
</g>
<!-- Node11&#45;&gt;Node9 -->
<g id="edge20" class="edge">
<title>Node11&#45;&gt;Node9</title>
<path fill="none" stroke="midnightblue" d="M309.88,-224.32C319.39,-207.14 340.65,-167.37 354,-132 359.81,-116.59 364.67,-98.5 367.87,-85.32"/>
<polygon fill="midnightblue" stroke="midnightblue" points="371.28,-86.11 370.15,-75.57 364.47,-84.51 371.28,-86.11"/>
</g>
<!-- Node11&#45;&gt;Node10 -->
<g id="edge19" class="edge">
<title>Node11&#45;&gt;Node10</title>
<path fill="none" stroke="midnightblue" d="M301.7,-224.08C299.02,-216.85 295.15,-206.41 291.81,-197.4"/>
<polygon fill="midnightblue" stroke="midnightblue" points="295,-195.91 288.24,-187.75 288.43,-198.34 295,-195.91"/>
</g>
</g>
</svg>
